<?xml version="1.0" encoding="UTF-8" standalone="no"?>
<!DOCTYPE svg PUBLIC "-//W3C//DTD SVG 1.1//EN" "http://www.w3.org/Graphics/SVG/1.1/DTD/svg11.dtd">
<svg width="100%" height="100%" viewBox="0 0 1024 1024" version="1.1" xmlns="http://www.w3.org/2000/svg" xmlns:xlink="http://www.w3.org/1999/xlink" xml:space="preserve" style="fill-rule:evenodd;clip-rule:evenodd;stroke-linejoin:round;stroke-miterlimit:1.41421;">
    <g transform="matrix(1,0,0,1,-2176,-2.95586e-11)">
        <g id="ARMINmon-Logo" transform="matrix(1,0,0,1,2176,2.95586e-11)">
            <g transform="matrix(1,0,0,1,-1072,0)">
                <path d="M1534,28.868C1564.94,11.004 1603.06,11.004 1634,28.868C1719.33,78.13 1892.08,177.87 1977.4,227.132C2008.35,244.996 2027.4,278.008 2027.4,313.735C2027.4,412.26 2027.4,611.74 2027.4,710.265C2027.4,745.992 2008.35,779.004 1977.4,796.868C1892.08,846.13 1719.33,945.87 1634,995.132C1603.06,1013 1564.94,1013 1534,995.132C1448.67,945.87 1275.92,846.13 1190.6,796.868C1159.65,779.004 1140.6,745.992 1140.6,710.265C1140.6,611.74 1140.6,412.26 1140.6,313.735C1140.6,278.008 1159.65,244.996 1190.6,227.132C1275.92,177.87 1448.67,78.13 1534,28.868ZM1858.69,537C1861.14,537 1863.51,537.899 1865.34,539.526C1874.61,547.768 1903.39,573.352 1903.39,573.352C1904.71,574.312 1905.95,575.407 1907.36,576.233C1910.19,577.894 1913.32,578.98 1916.57,579.43C1919.82,579.881 1923.13,579.686 1926.31,578.858C1927.89,578.445 1929.44,577.875 1930.91,577.162C1933.86,575.73 1936.5,573.73 1938.68,571.276C1940.87,568.822 1942.54,565.963 1943.62,562.861C1944.69,559.759 1945.15,556.476 1944.96,553.199C1944.86,551.568 1944.6,549.939 1944.19,548.358C1943.36,545.181 1941.92,542.199 1939.93,539.581C1938.95,538.278 1937.72,537.181 1936.61,535.981L1600.61,237.315C1599.39,236.417 1598.25,235.405 1596.96,234.622C1593.49,232.517 1592.38,232.49 1588.52,231.411C1587.01,231.274 1585.51,231.137 1584,231C1582.49,231.137 1580.97,231.138 1579.48,231.411C1576.5,231.96 1573.64,233.048 1571.04,234.622C1569.75,235.405 1568.61,236.417 1567.39,237.315L1231.39,535.981C1230.28,537.181 1229.05,538.278 1228.07,539.581C1226.08,542.199 1224.64,545.181 1223.81,548.358C1222.98,551.535 1222.79,554.844 1223.24,558.096C1223.69,561.348 1224.77,564.479 1226.43,567.311C1227.26,568.721 1228.23,570.055 1229.32,571.276C1231.5,573.73 1234.14,575.73 1237.09,577.162C1240.05,578.594 1243.26,579.431 1246.53,579.624C1249.81,579.816 1253.09,579.362 1256.19,578.286C1257.74,577.75 1259.16,576.917 1260.64,576.233L1264.61,573.352C1264.61,573.352 1293.39,547.768 1302.66,539.526C1304.49,537.899 1306.86,537 1309.31,537C1331.92,537 1448.64,537 1476.2,537C1477.3,537 1478.31,537.613 1478.81,538.588C1479.32,539.564 1479.24,540.74 1478.6,541.637C1478.6,541.638 1478.6,541.638 1478.6,541.639C1474.93,546.829 1471.65,552.289 1468.78,557.962C1463.18,569.058 1459.2,580.965 1457.02,593.201C1454.61,606.648 1454.36,620.48 1456.25,634.008C1457.18,640.633 1458.63,647.185 1460.58,653.584C1462.53,659.995 1464.98,666.252 1467.91,672.279C1471.43,679.514 1475.62,686.416 1480.42,692.871C1484.8,698.769 1489.69,704.292 1495.01,709.363C1500.71,714.795 1506.9,719.706 1513.49,724.016C1520.24,728.436 1527.42,732.222 1534.88,735.3C1534.88,735.301 1534.88,735.301 1534.88,735.301C1537.5,736.382 1539.34,738.792 1539.68,741.606C1540.02,744.42 1538.82,747.199 1536.53,748.875C1523.7,758.281 1505.22,771.84 1505.22,771.84C1504.3,772.548 1504.06,772.709 1503.2,773.487C1501.27,775.239 1499.62,777.293 1498.32,779.553C1496.59,782.569 1495.5,785.941 1495.14,789.399C1494.77,792.857 1495.14,796.382 1496.21,799.69C1496.88,801.757 1497.82,803.735 1499,805.559C1500.17,807.384 1501.59,809.053 1503.2,810.513C1504.06,811.291 1504.3,811.452 1505.22,812.16L1625.22,900.16C1625.57,900.409 1625.93,900.667 1626.29,900.906C1627.02,901.385 1627.78,901.825 1628.55,902.225C1631.27,903.624 1634.24,904.518 1637.28,904.851C1639.88,905.136 1642.53,905.01 1645.09,904.476C1648.08,903.854 1650.95,902.68 1653.52,901.027C1656.46,899.137 1658.99,896.63 1660.91,893.709C1662.1,891.884 1663.06,889.903 1663.74,887.831C1664.7,884.929 1665.12,881.854 1664.97,878.802C1664.83,875.75 1664.11,872.73 1662.88,869.933C1661.83,867.536 1660.4,865.308 1658.65,863.354C1658.07,862.703 1657.46,862.083 1656.81,861.496C1656.49,861.202 1656.15,860.926 1655.82,860.641L1654.78,859.84C1654.78,859.84 1597.79,818.043 1573.27,800.064C1570.7,798.18 1569.18,795.185 1569.18,792C1569.18,788.815 1570.7,785.82 1573.27,783.936C1597.79,765.957 1654.78,724.16 1654.78,724.16C1655.13,723.893 1655.48,723.635 1655.82,723.359C1656.2,723.05 1656.57,722.729 1656.93,722.399C1662.94,718.271 1668.6,713.635 1673.83,708.557C1679.38,703.169 1684.44,697.285 1688.95,690.996C1693.41,684.768 1697.31,678.144 1700.59,671.225C1703.59,664.924 1706.06,658.378 1707.99,651.675C1709.73,645.623 1711.02,639.443 1711.86,633.201C1713.65,619.796 1713.34,606.104 1710.91,592.798C1710,587.812 1708.8,582.881 1707.31,578.038C1705.22,571.258 1702.57,564.652 1699.39,558.311C1696.37,552.281 1692.87,546.489 1688.95,541.004C1688.95,541.004 1688.95,541.003 1688.95,541.003C1688.39,540.232 1688.32,539.217 1688.75,538.374C1689.19,537.53 1690.06,537 1691,537C1717.03,537 1835.86,537 1858.69,537ZM1583.74,537C1582.21,537.008 1580.69,537.054 1579.16,537.145C1576.42,537.311 1573.68,537.618 1570.97,538.068C1564.35,539.166 1557.87,541.122 1551.74,543.872C1544.28,547.222 1537.34,551.743 1531.26,557.21C1524.24,563.519 1518.35,571.073 1513.96,579.436C1510.6,585.852 1508.13,592.732 1506.66,599.824C1504.81,608.683 1504.51,617.859 1505.73,626.823C1506.3,630.95 1507.19,635.032 1508.41,639.017C1509.53,642.703 1510.92,646.304 1512.58,649.785C1516.66,658.391 1522.32,666.233 1529.17,672.847C1533.16,676.701 1537.56,680.134 1542.27,683.074C1545.85,685.311 1549.61,687.259 1553.5,688.893C1558.65,691.054 1564.03,692.659 1569.52,693.677C1574.21,694.546 1578.97,694.985 1583.74,695C1588.68,695.015 1593.62,694.577 1598.48,693.677C1603.82,692.688 1609.04,691.145 1614.06,689.077C1618.91,687.073 1623.57,684.578 1627.93,681.648C1631.68,679.13 1635.22,676.291 1638.49,673.174C1645.38,666.603 1651.08,658.794 1655.22,650.215C1658.7,642.998 1661.06,635.25 1662.2,627.318C1663.49,618.281 1663.23,609.015 1661.39,600.07C1659.91,592.812 1657.38,585.775 1653.92,579.224C1649.85,571.508 1644.49,564.481 1638.14,558.499C1631.84,552.562 1624.57,547.662 1616.7,544.069C1610.51,541.25 1603.97,539.242 1597.27,538.108C1594.56,537.65 1591.83,537.335 1589.09,537.161C1587.65,537.07 1586.21,537.02 1584.77,537.004C1584.43,537.001 1584.08,537 1583.74,537ZM1381.41,469.526C1378.31,472.284 1377.23,476.673 1378.71,480.554C1380.18,484.435 1383.9,487 1388.06,487C1416.94,487 1463.06,487 1491.94,487C1496.1,487 1499.82,484.435 1501.29,480.554C1502.77,476.673 1501.69,472.284 1498.59,469.526C1481.59,454.414 1458.01,433.454 1446.64,423.354C1442.86,419.986 1437.14,419.986 1433.36,423.354C1422,433.454 1398.41,454.414 1381.41,469.526ZM1669.41,469.526C1666.31,472.284 1665.23,476.673 1666.71,480.554C1668.18,484.435 1671.9,487 1676.06,487C1704.94,487 1751.06,487 1779.94,487C1784.1,487 1787.82,484.435 1789.29,480.554C1790.77,476.673 1789.69,472.284 1786.59,469.526C1769.59,454.414 1746.01,433.454 1734.64,423.354C1730.86,419.986 1725.14,419.986 1721.36,423.354C1710,433.454 1686.41,454.414 1669.41,469.526ZM1486.04,376.526C1483.9,378.424 1482.68,381.144 1482.68,384C1482.68,386.856 1483.9,389.576 1486.04,391.474C1506.55,409.705 1558.82,456.168 1577.36,472.646C1581.14,476.014 1586.86,476.014 1590.64,472.646C1609.18,456.168 1661.45,409.705 1681.96,391.474C1684.1,389.576 1685.32,386.856 1685.32,384C1685.32,381.144 1684.1,378.424 1681.96,376.526C1661.45,358.295 1609.18,311.832 1590.64,295.354C1586.86,291.986 1581.14,291.986 1577.36,295.354C1558.82,311.832 1506.55,358.295 1486.04,376.526ZM1584,120C1606.08,120 1624,137.923 1624,160C1624,182.077 1606.08,200 1584,200C1561.92,200 1544,182.077 1544,160C1544,137.923 1561.92,120 1584,120Z" style="fill:black;"/>
            </g>
        </g>
    </g>
</svg>
