<?xml version="1.0" encoding="UTF-8" standalone="no"?><!DOCTYPE svg PUBLIC "-//W3C//DTD SVG 1.1//EN" "http://www.w3.org/Graphics/SVG/1.1/DTD/svg11.dtd"><svg width="100%" height="100%" viewBox="0 0 1024 1024" version="1.1" xmlns="http://www.w3.org/2000/svg" xmlns:xlink="http://www.w3.org/1999/xlink" xml:space="preserve" style="fill-rule:evenodd;clip-rule:evenodd;stroke-linejoin:round;stroke-miterlimit:1.41421;"><rect id="devlogo" x="0" y="0" width="1024" height="1024" style="fill:none;"/><path d="M462,28.868c30.94,-17.864 69.06,-17.864 100,0c85.325,49.262 258.08,149.002 343.405,198.264c30.94,17.864 50,50.876 50,86.603c0,98.525 0,298.005 0,396.53c0,35.727 -19.06,68.739 -50,86.603c-85.325,49.262 -258.08,149.002 -343.405,198.264c-30.94,17.864 -69.06,17.864 -100,0c-85.325,-49.262 -258.08,-149.002 -343.405,-198.264c-30.94,-17.864 -50,-50.876 -50,-86.603c0,-98.525 0,-298.005 0,-396.53c0,-35.727 19.06,-68.739 50,-86.603c85.325,-49.262 258.08,-149.002 343.405,-198.264Zm324.693,508.132c2.449,0 4.813,0.899 6.644,2.526c9.272,8.242 38.054,33.826 38.054,33.826c1.321,0.96 2.555,2.055 3.964,2.881c2.833,1.661 5.964,2.747 9.216,3.197c3.252,0.451 6.561,0.256 9.738,-0.572c1.58,-0.413 3.128,-0.983 4.598,-1.696c2.954,-1.432 5.597,-3.432 7.778,-5.886c2.181,-2.454 3.858,-5.313 4.934,-8.415c1.076,-3.102 1.531,-6.385 1.338,-9.662c-0.096,-1.631 -0.354,-3.26 -0.766,-4.841c-0.829,-3.177 -2.275,-6.159 -4.256,-8.777c-0.986,-1.303 -2.217,-2.4 -3.326,-3.6l-336,-298.666c-1.216,-0.898 -2.356,-1.91 -3.649,-2.693c-3.471,-2.105 -4.582,-2.132 -8.443,-3.211c-1.506,-0.137 -3.011,-0.274 -4.517,-0.411c-1.506,0.137 -3.03,0.138 -4.517,0.411c-2.986,0.549 -5.847,1.637 -8.443,3.211c-1.293,0.783 -2.433,1.795 -3.649,2.693l-336,298.666c-1.109,1.2 -2.34,2.297 -3.326,3.6c-1.981,2.618 -3.427,5.6 -4.256,8.777c-0.828,3.177 -1.023,6.486 -0.573,9.738c0.451,3.252 1.537,6.383 3.198,9.215c0.826,1.41 1.795,2.744 2.881,3.965c2.181,2.454 4.824,4.454 7.778,5.886c2.954,1.432 6.162,2.269 9.439,2.462c3.277,0.192 6.561,-0.262 9.662,-1.338c1.544,-0.536 2.967,-1.369 4.451,-2.053l3.964,-2.881c0,0 28.782,-25.584 38.054,-33.826c1.831,-1.627 4.195,-2.526 6.644,-2.526c22.611,0 139.334,0 166.895,0c1.098,0 2.105,0.613 2.61,1.588c0.505,0.976 0.424,2.152 -0.21,3.049c0,0.001 0,0.001 -0.001,0.002c-3.668,5.19 -6.953,10.65 -9.818,16.323c-5.603,11.096 -9.58,23.003 -11.767,35.239c-2.404,13.447 -2.661,27.279 -0.764,40.807c0.929,6.625 2.374,13.177 4.323,19.576c1.952,6.411 4.409,12.668 7.337,18.695c3.515,7.235 7.711,14.137 12.509,20.592c4.383,5.898 9.271,11.421 14.589,16.492c5.697,5.432 11.889,10.343 18.477,14.653c6.757,4.42 13.929,8.206 21.394,11.284c0.001,0.001 0.002,0.001 0.002,0.001c2.621,1.081 4.454,3.491 4.796,6.305c0.342,2.814 -0.862,5.593 -3.147,7.269c-12.827,9.406 -31.316,22.965 -31.316,22.965c-0.915,0.708 -1.159,0.869 -2.017,1.647c-1.93,1.752 -3.583,3.806 -4.88,6.066c-1.731,3.016 -2.822,6.388 -3.183,9.846c-0.362,3.458 0.007,6.983 1.076,10.291c0.668,2.067 1.607,4.045 2.784,5.869c1.178,1.825 2.594,3.494 4.203,4.954c0.858,0.778 1.102,0.939 2.017,1.647l120,88c0.358,0.249 0.71,0.507 1.075,0.746c0.73,0.479 1.485,0.919 2.261,1.319c2.716,1.399 5.687,2.293 8.725,2.626c2.603,0.285 5.249,0.159 7.812,-0.375c2.992,-0.622 5.864,-1.796 8.434,-3.449c2.938,-1.89 5.468,-4.397 7.383,-7.318c1.197,-1.825 2.153,-3.806 2.836,-5.878c0.957,-2.902 1.376,-5.977 1.229,-9.029c-0.146,-3.052 -0.857,-6.072 -2.088,-8.869c-1.054,-2.397 -2.487,-4.625 -4.23,-6.579c-0.582,-0.651 -1.196,-1.271 -1.843,-1.858c-0.322,-0.294 -0.661,-0.57 -0.991,-0.855l-1.035,-0.801c0,0 -56.996,-41.797 -81.512,-59.776c-2.569,-1.884 -4.087,-4.879 -4.087,-8.064c0,-3.185 1.518,-6.18 4.087,-8.064c24.516,-17.979 81.512,-59.776 81.512,-59.776c0.345,-0.267 0.697,-0.525 1.035,-0.801c0.378,-0.309 0.747,-0.63 1.107,-0.96c6.01,-4.128 11.67,-8.764 16.901,-13.842c5.55,-5.388 10.617,-11.272 15.12,-17.561c4.459,-6.228 8.362,-12.852 11.647,-19.771c2.992,-6.301 5.468,-12.847 7.396,-19.55c1.741,-6.052 3.034,-12.232 3.869,-18.474c1.792,-13.405 1.478,-27.097 -0.947,-40.403c-0.909,-4.986 -2.112,-9.917 -3.603,-14.76c-2.087,-6.78 -4.738,-13.386 -7.917,-19.727c-3.023,-6.03 -6.518,-11.822 -10.445,-17.307c0,0 0,-0.001 -0.001,-0.001c-0.552,-0.771 -0.626,-1.786 -0.193,-2.629c0.434,-0.844 1.302,-1.374 2.25,-1.374c26.028,0 144.855,0 167.69,0Zm-274.951,0c-1.528,0.008 -3.056,0.054 -4.582,0.145c-2.742,0.166 -5.476,0.473 -8.187,0.923c-6.625,1.098 -13.105,3.054 -19.232,5.804c-7.465,3.35 -14.397,7.871 -20.483,13.338c-7.022,6.309 -12.913,13.863 -17.295,22.226c-3.362,6.416 -5.832,13.296 -7.307,20.388c-1.842,8.859 -2.148,18.035 -0.922,26.999c0.565,4.127 1.459,8.209 2.672,12.194c1.123,3.686 2.518,7.287 4.17,10.768c4.084,8.606 9.742,16.448 16.596,23.062c3.992,3.854 8.389,7.287 13.095,10.227c3.58,2.237 7.342,4.185 11.235,5.819c5.148,2.161 10.526,3.766 16.016,4.784c4.688,0.869 9.456,1.308 14.224,1.323c4.941,0.015 9.882,-0.423 14.74,-1.323c5.333,-0.989 10.56,-2.532 15.574,-4.6c4.859,-2.004 9.515,-4.499 13.879,-7.429c3.75,-2.518 7.284,-5.357 10.553,-8.474c6.892,-6.571 12.594,-14.38 16.73,-22.959c3.48,-7.217 5.844,-14.965 6.978,-22.897c1.294,-9.037 1.031,-18.303 -0.802,-27.248c-1.487,-7.258 -4.011,-14.295 -7.469,-20.846c-4.072,-7.716 -9.432,-14.743 -15.782,-20.725c-6.301,-5.937 -13.57,-10.837 -21.447,-14.43c-6.182,-2.819 -12.728,-4.827 -19.428,-5.961c-2.706,-0.458 -5.437,-0.773 -8.176,-0.947c-1.439,-0.091 -2.881,-0.141 -4.323,-0.157c-0.342,-0.003 -0.685,-0.004 -1.027,-0.004Zm-202.329,-67.474c-3.103,2.758 -4.179,7.147 -2.703,11.028c1.475,3.881 5.195,6.446 9.347,6.446c28.886,0 75,0 103.886,0c4.152,0 7.872,-2.565 9.347,-6.446c1.476,-3.881 0.4,-8.27 -2.703,-11.028c-17.001,-15.112 -40.582,-36.072 -51.943,-46.172c-3.789,-3.368 -9.499,-3.368 -13.288,0c-11.361,10.1 -34.942,31.06 -51.943,46.172Zm288,0c-3.103,2.758 -4.179,7.147 -2.703,11.028c1.475,3.881 5.195,6.446 9.347,6.446c28.886,0 75,0 103.886,0c4.152,0 7.872,-2.565 9.347,-6.446c1.476,-3.881 0.4,-8.27 -2.703,-11.028c-17.001,-15.112 -40.582,-36.072 -51.943,-46.172c-3.789,-3.368 -9.499,-3.368 -13.288,0c-11.361,10.1 -34.942,31.06 -51.943,46.172Zm-183.375,-93c-2.135,1.898 -3.356,4.618 -3.356,7.474c0,2.856 1.221,5.576 3.356,7.474c20.51,18.231 72.781,64.694 91.318,81.172c3.789,3.368 9.499,3.368 13.288,0c18.537,-16.478 70.808,-62.941 91.318,-81.172c2.135,-1.898 3.356,-4.618 3.356,-7.474c0,-2.856 -1.221,-5.576 -3.356,-7.474c-20.51,-18.231 -72.781,-64.694 -91.318,-81.172c-3.789,-3.368 -9.499,-3.368 -13.288,0c-18.537,16.478 -70.808,62.941 -91.318,81.172Zm97.962,-256.526c22.077,0 40,17.923 40,40c0,22.077 -17.923,40 -40,40c-22.077,0 -40,-17.923 -40,-40c0,-22.077 17.923,-40 40,-40Z" style="fill:url(#_Radial1);"/><defs><radialGradient id="_Radial1" cx="0" cy="0" r="1" gradientUnits="userSpaceOnUse" gradientTransform="matrix(-1.82422e-13,993.06,-993.06,-1.82422e-13,512,15.4701)"><stop offset="0%" style="stop-color:#3cb5dd;stop-opacity:1"/><stop offset="62%" style="stop-color:#5cacce;stop-opacity:1"/><stop offset="82%" style="stop-color:#aa97a9;stop-opacity:1"/><stop offset="100%" style="stop-color:#ff8080;stop-opacity:1"/><stop offset="100%" style="stop-color:#ff8080;stop-opacity:1"/></radialGradient></defs></svg>