<?xml version="1.0" encoding="UTF-8" standalone="no"?><!DOCTYPE svg PUBLIC "-//W3C//DTD SVG 1.1//EN" "http://www.w3.org/Graphics/SVG/1.1/DTD/svg11.dtd"><svg width="100%" height="100%" viewBox="0 0 256 256" version="1.1" xmlns="http://www.w3.org/2000/svg" xmlns:xlink="http://www.w3.org/1999/xlink" xml:space="preserve" style="fill-rule:evenodd;clip-rule:evenodd;stroke-linejoin:round;stroke-miterlimit:1.41421;"><rect id="Artboard1" x="0" y="0" width="256" height="256" style="fill:none;"/><g><g opacity="0.205055"><path d="M78.188,42.527c1.024,-2.388 0.348,-5.069 -1.555,-6.68c0.087,-0.152 0.165,-0.309 0.235,-0.471c1.008,-2.351 -0.084,-5.084 -2.435,-6.093c-0.693,-0.297 -1.43,-0.419 -2.16,-0.366c-0.324,-1.906 -1.592,-3.563 -3.425,-4.35c-1.154,-0.495 -2.407,-0.598 -3.595,-0.318c-0.337,-1.397 -1.313,-2.605 -2.681,-3.192c-1.316,-0.564 -2.801,-0.475 -4.025,0.179c-0.618,-0.967 -1.517,-1.738 -2.591,-2.198c-1.833,-0.787 -3.907,-0.563 -5.511,0.516c-0.465,-0.566 -1.062,-1.016 -1.754,-1.312c-2.351,-1.009 -5.084,0.083 -6.093,2.435c-0.069,0.162 -0.129,0.326 -0.18,0.493c-2.478,-0.268 -4.886,1.09 -5.911,3.479c-0.512,1.195 -0.605,2.514 -0.274,3.761l-10.734,37.027c-0.15,0.519 0.11,1.068 0.606,1.281l28.769,12.34c0.496,0.213 1.073,0.022 1.345,-0.444l19.431,-33.296c1.132,-0.619 2.025,-1.595 2.538,-2.791Zm-35.883,-19.214c0.2,0.966 0.794,2.148 2.162,2.734c0.142,0.062 0.294,0.116 0.454,0.164c0.54,0.16 1.136,-0.091 1.344,-0.615c0.237,-0.601 -0.1,-1.258 -0.706,-1.428c-1.166,-0.325 -1.204,-1.453 -1.199,-1.681c0,-0.004 0,-0.008 0,-0.012c0,-0.003 0.001,-0.006 0.001,-0.009c0.004,-0.226 0.038,-0.449 0.102,-0.666c0.402,-1.354 1.887,-2.123 3.221,-1.656c0.689,0.241 1.224,0.753 1.497,1.424c0.106,0.261 0.302,0.48 0.559,0.595c0.435,0.194 0.928,0.081 1.234,-0.257c1.045,-1.153 2.708,-1.516 4.139,-0.902c0.954,0.409 1.689,1.207 2.018,2.191c0.091,0.271 0.284,0.503 0.541,0.629c0.432,0.213 0.936,0.113 1.253,-0.222c0.718,-0.757 1.845,-0.99 2.803,-0.578c1.006,0.431 1.62,1.486 1.5,2.572c-0.035,0.317 0.047,0.641 0.261,0.877c0.345,0.379 0.887,0.457 1.314,0.222c0.995,-0.549 2.162,-0.607 3.201,-0.161c1.267,0.543 2.103,1.745 2.2,3.089c-0.304,0.209 -0.671,0.512 -0.999,0.923c-0.948,1.186 -1.121,2.71 -0.49,4.29c0.11,0.275 0.32,0.478 0.572,0.586c0.247,0.106 0.534,0.12 0.804,0.016c0.56,-0.214 0.808,-0.884 0.592,-1.443c-0.318,-0.827 -0.267,-1.503 0.156,-2.066c0.046,-0.061 0.094,-0.118 0.143,-0.171c0.415,-0.449 1.005,-0.71 1.616,-0.712c0.423,-0.001 0.845,0.106 1.233,0.322c1.105,0.617 1.57,2.006 1.069,3.168c-0.128,0.298 -0.31,0.564 -0.541,0.792c-0.181,0.179 -0.297,0.418 -0.319,0.672c-0.038,0.435 0.189,0.838 0.56,1.037c1.647,0.885 2.36,2.926 1.622,4.647c-0.302,0.703 -0.813,1.283 -1.459,1.675l-36.499,-15.657c-0.16,-0.738 -0.092,-1.508 0.209,-2.21c0.661,-1.54 2.233,-2.399 3.832,-2.179Zm3.582,36.992c-3.361,-1.442 -4.923,-5.349 -3.481,-8.711c1.442,-3.361 5.349,-4.922 8.71,-3.48c3.361,1.441 4.923,5.349 3.481,8.71c-1.442,3.361 -5.349,4.922 -8.71,3.481Zm6.073,-14.158c-1.172,-0.502 -2.395,-0.726 -3.594,-0.706l3.73,-9.477l7.149,3.066l-4.296,9.235c-0.812,-0.883 -1.817,-1.615 -2.989,-2.118Zm-1.831,-11.027l-4.217,10.714c-2.371,0.736 -4.419,2.462 -5.472,4.917c-1.128,2.63 -0.866,5.513 0.457,7.824l-4.095,10.403l-3.928,-1.685l11.646,-34.579l5.609,2.406Zm-7.704,25.414c0.741,0.713 1.619,1.308 2.619,1.737c0.999,0.429 2.036,0.655 3.063,0.7l-4.211,9.05l-5.127,-2.199l3.656,-9.288Zm8.155,2.193c2.586,-0.634 4.855,-2.43 5.983,-5.06c1.053,-2.454 0.893,-5.128 -0.208,-7.352l4.857,-10.441l5.608,2.405l-17.029,32.271l-3.928,-1.685l4.717,-10.138Zm-12.559,-32.801l4.527,1.942l-11.646,34.579l-3.085,-1.323l10.204,-35.198Zm16.827,46.793l-3.084,-1.323l17.029,-32.271l4.527,1.942l-18.472,31.652Z" style="fill:#818181;fill-rule:nonzero;"/><path d="M53.071,32.583c0.542,0.233 1.171,-0.019 1.404,-0.562c0.233,-0.542 -0.018,-1.171 -0.561,-1.404c-0.904,-0.388 -1.323,-1.438 -0.936,-2.342c0.388,-0.903 1.438,-1.323 2.342,-0.935c0.583,0.25 0.981,0.779 1.063,1.413c0.042,0.332 0.237,0.624 0.526,0.79c0.29,0.167 0.64,0.189 0.948,0.06c0.591,-0.247 1.239,-0.244 1.826,0.007c1.186,0.509 1.737,1.887 1.228,3.073c-0.233,0.543 0.018,1.172 0.561,1.405c0.543,0.233 1.172,-0.018 1.405,-0.561c0.974,-2.27 -0.081,-4.909 -2.351,-5.883c-0.756,-0.324 -1.566,-0.433 -2.36,-0.325c-0.403,-0.861 -1.111,-1.563 -2.003,-1.945c-1.988,-0.853 -4.298,0.07 -5.151,2.058c-0.852,1.988 0.071,4.298 2.059,5.151Z" style="fill:#818181;fill-rule:nonzero;"/></g></g><g><g opacity="0.205055"><path d="M241.847,88.413c-0.264,-2.194 -1.904,-3.878 -3.99,-4.252c-0.002,-0.149 -0.011,-0.298 -0.029,-0.446c-0.26,-2.16 -2.228,-3.705 -4.388,-3.445c-0.636,0.076 -1.231,0.3 -1.745,0.65c-1.051,-1.264 -2.689,-1.943 -4.373,-1.74c-1.061,0.128 -2.026,0.585 -2.781,1.297c-0.843,-0.884 -2.076,-1.356 -3.333,-1.205c-1.208,0.146 -2.263,0.845 -2.885,1.847c-0.866,-0.448 -1.856,-0.632 -2.842,-0.513c-1.684,0.202 -3.115,1.251 -3.835,2.728c-0.583,-0.218 -1.214,-0.295 -1.849,-0.218c-2.16,0.26 -3.705,2.228 -3.445,4.388c0.017,0.149 0.043,0.296 0.078,0.44c-1.938,0.859 -3.131,2.884 -2.867,5.078c0.132,1.098 0.626,2.108 1.401,2.885l7.883,31.815c0.11,0.445 0.535,0.739 0.991,0.684l26.424,-3.181c0.456,-0.055 0.8,-0.441 0.801,-0.9l0.106,-32.777c0.57,-0.938 0.81,-2.037 0.678,-3.135Zm-34.588,1.156c0.559,0.625 1.5,1.241 2.756,1.09c0.131,-0.016 0.265,-0.04 0.403,-0.073c0.466,-0.113 0.798,-0.551 0.727,-1.025c-0.081,-0.543 -0.609,-0.883 -1.127,-0.75c-0.997,0.258 -1.505,-0.556 -1.599,-0.726c-0.001,-0.003 -0.003,-0.005 -0.005,-0.008c-0.001,-0.003 -0.002,-0.005 -0.003,-0.008c-0.094,-0.168 -0.163,-0.346 -0.209,-0.533c-0.281,-1.168 0.484,-2.367 1.664,-2.591c0.609,-0.116 1.222,0.032 1.708,0.41c0.189,0.147 0.427,0.224 0.665,0.199c0.403,-0.042 0.717,-0.336 0.798,-0.714c0.278,-1.295 1.347,-2.27 2.661,-2.429c0.876,-0.105 1.757,0.169 2.419,0.753c0.182,0.161 0.423,0.248 0.665,0.232c0.409,-0.027 0.737,-0.316 0.828,-0.697c0.206,-0.863 0.935,-1.515 1.816,-1.621c0.924,-0.111 1.825,0.404 2.2,1.254c0.109,0.248 0.307,0.452 0.565,0.534c0.416,0.131 0.848,-0.042 1.061,-0.397c0.499,-0.827 1.332,-1.368 2.287,-1.483c1.163,-0.14 2.291,0.388 2.935,1.336c-0.135,0.283 -0.276,0.662 -0.342,1.104c-0.192,1.277 0.33,2.472 1.468,3.365c0.198,0.156 0.439,0.216 0.67,0.188c0.228,-0.027 0.444,-0.14 0.599,-0.331c0.321,-0.396 0.218,-0.995 -0.18,-1.314c-0.586,-0.473 -0.837,-0.992 -0.765,-1.586c0.008,-0.065 0.019,-0.127 0.032,-0.187c0.114,-0.507 0.437,-0.951 0.886,-1.213c0.31,-0.181 0.667,-0.282 1.044,-0.288c1.076,-0.018 2.009,0.806 2.137,1.875c0.032,0.274 0.012,0.547 -0.061,0.813c-0.057,0.209 -0.041,0.435 0.051,0.63c0.158,0.337 0.497,0.537 0.854,0.525c1.59,-0.051 2.984,1.147 3.174,2.728c0.078,0.645 -0.051,1.29 -0.359,1.853l-33.525,4.036c-0.433,-0.474 -0.71,-1.07 -0.788,-1.715c-0.17,-1.415 0.62,-2.717 1.89,-3.236Zm18.4,25.688c-3.087,0.372 -5.901,-1.837 -6.273,-4.924c-0.372,-3.088 1.838,-5.901 4.925,-6.273c3.087,-0.372 5.901,1.837 6.273,4.925c0.371,3.087 -1.838,5.901 -4.925,6.272Zm-1.566,-13.003c-1.076,0.129 -2.071,0.485 -2.945,1.012l-1.294,-8.563l6.566,-0.79l0.775,8.625c-0.974,-0.304 -2.025,-0.414 -3.102,-0.284Zm-6.046,-7.333l1.463,9.68c-1.431,1.551 -2.201,3.694 -1.93,5.949c0.291,2.416 1.713,4.425 3.671,5.561l1.42,9.399l-3.607,0.435l-6.169,-30.404l5.152,-0.62Zm5.163,21.981c0.849,0.209 1.748,0.272 2.666,0.161c0.919,-0.11 1.777,-0.385 2.553,-0.79l0.759,8.453l-4.71,0.567l-1.268,-8.391Zm6.934,-1.862c1.632,-1.569 2.536,-3.857 2.246,-6.273c-0.272,-2.254 -1.529,-4.153 -3.287,-5.32l-0.876,-9.752l5.151,-0.62l1.224,30.999l-3.608,0.434l-0.85,-9.468Zm-23.218,-18.78l4.157,-0.501l6.169,30.404l-2.833,0.341l-7.493,-30.244Zm32.321,27.255l-2.833,0.341l-1.224,-30.999l4.158,-0.501l-0.101,31.159Z" style="fill:#818181;fill-rule:nonzero;"/><path d="M219.13,91.801c0.499,-0.06 0.854,-0.513 0.794,-1.012c-0.06,-0.499 -0.513,-0.854 -1.011,-0.794c-0.83,0.1 -1.587,-0.494 -1.687,-1.324c-0.1,-0.83 0.494,-1.586 1.324,-1.686c0.536,-0.065 1.054,0.155 1.385,0.587c0.172,0.225 0.44,0.357 0.724,0.357c0.284,-0.001 0.551,-0.134 0.723,-0.36c0.329,-0.434 0.807,-0.708 1.346,-0.773c1.089,-0.131 2.082,0.648 2.213,1.737c0.06,0.499 0.513,0.855 1.012,0.795c0.499,-0.06 0.854,-0.513 0.794,-1.012c-0.251,-2.085 -2.151,-3.577 -4.236,-3.326c-0.695,0.084 -1.338,0.349 -1.875,0.767c-0.664,-0.462 -1.484,-0.677 -2.303,-0.578c-1.826,0.22 -3.132,1.884 -2.912,3.71c0.219,1.825 1.883,3.132 3.709,2.912Z" style="fill:#818181;fill-rule:nonzero;"/></g></g><g><g opacity="0.205055"><path d="M64.56,193.626c-0.42,-0.995 -1.418,-1.565 -2.449,-1.46c-0.02,-0.069 -0.045,-0.138 -0.073,-0.205c-0.414,-0.98 -1.547,-1.44 -2.527,-1.027c-0.288,0.122 -0.537,0.308 -0.732,0.542c-0.664,-0.452 -1.525,-0.55 -2.289,-0.228c-0.481,0.203 -0.872,0.549 -1.131,0.985c-0.515,-0.301 -1.158,-0.357 -1.728,-0.116c-0.548,0.231 -0.949,0.702 -1.106,1.256c-0.468,-0.093 -0.958,-0.046 -1.405,0.143c-0.764,0.322 -1.294,1.008 -1.433,1.799c-0.304,-0.023 -0.61,0.026 -0.898,0.147c-0.98,0.414 -1.44,1.547 -1.027,2.527c0.029,0.067 0.061,0.133 0.096,0.196c-0.794,0.665 -1.081,1.777 -0.661,2.772c0.21,0.498 0.579,0.906 1.047,1.166l7.997,13.882c0.112,0.195 0.351,0.275 0.558,0.188l11.984,-5.061c0.207,-0.087 0.316,-0.315 0.255,-0.53l-4.374,-15.412c0.141,-0.518 0.106,-1.066 -0.104,-1.564Zm-16.093,5.21c0.347,0.218 0.872,0.381 1.442,0.14c0.06,-0.025 0.119,-0.054 0.18,-0.088c0.203,-0.116 0.3,-0.367 0.203,-0.58c-0.112,-0.244 -0.406,-0.333 -0.631,-0.2c-0.433,0.255 -0.782,-0.058 -0.849,-0.125c-0.001,-0.002 -0.002,-0.003 -0.003,-0.004c-0.001,-0.001 -0.002,-0.002 -0.003,-0.003c-0.067,-0.066 -0.123,-0.14 -0.17,-0.222c-0.29,-0.511 -0.092,-1.177 0.432,-1.442c0.271,-0.137 0.578,-0.149 0.858,-0.038c0.108,0.044 0.231,0.048 0.339,0.004c0.183,-0.074 0.291,-0.255 0.279,-0.443c-0.045,-0.646 0.326,-1.248 0.922,-1.5c0.397,-0.168 0.848,-0.158 1.238,0.027c0.107,0.051 0.232,0.06 0.344,0.019c0.188,-0.068 0.303,-0.248 0.294,-0.439c-0.02,-0.433 0.235,-0.838 0.635,-1.006c0.419,-0.177 0.911,-0.057 1.202,0.292c0.085,0.101 0.206,0.17 0.338,0.174c0.213,0.006 0.393,-0.134 0.445,-0.329c0.122,-0.456 0.441,-0.823 0.874,-1.006c0.528,-0.222 1.128,-0.127 1.559,0.232c-0.025,0.151 -0.04,0.348 -0.012,0.565c0.083,0.625 0.489,1.116 1.144,1.383c0.114,0.046 0.236,0.042 0.34,-0.003c0.103,-0.043 0.19,-0.125 0.237,-0.236c0.097,-0.23 -0.032,-0.497 -0.262,-0.593c-0.339,-0.143 -0.527,-0.353 -0.573,-0.642c-0.005,-0.031 -0.009,-0.062 -0.01,-0.092c-0.015,-0.254 0.076,-0.506 0.252,-0.689c0.121,-0.127 0.275,-0.223 0.452,-0.277c0.503,-0.153 1.052,0.108 1.256,0.593c0.053,0.124 0.08,0.255 0.082,0.39c0.001,0.106 0.039,0.21 0.109,0.289c0.119,0.137 0.305,0.185 0.472,0.131c0.739,-0.238 1.556,0.136 1.859,0.853c0.123,0.293 0.15,0.613 0.081,0.92l-15.204,6.42c-0.268,-0.165 -0.478,-0.407 -0.602,-0.7c-0.271,-0.641 -0.075,-1.36 0.451,-1.775Zm12.111,9.585c-1.4,0.591 -3.02,-0.067 -3.612,-1.467c-0.591,-1.4 0.067,-3.02 1.467,-3.612c1.4,-0.591 3.02,0.067 3.612,1.467c0.591,1.401 -0.067,3.021 -1.467,3.612Zm-2.491,-5.898c-0.488,0.207 -0.907,0.508 -1.247,0.873l-1.763,-3.848l2.978,-1.257l1.528,3.947c-0.499,-0.011 -1.007,0.079 -1.496,0.285Zm-3.83,-2.629l1.994,4.351c-0.463,0.921 -0.536,2.032 -0.104,3.055c0.463,1.095 1.402,1.847 2.475,2.117l1.936,4.224l-1.636,0.69l-7.001,-13.45l2.336,-0.987Zm5.392,9.63c0.427,-0.017 0.858,-0.108 1.275,-0.284c0.416,-0.176 0.782,-0.421 1.092,-0.716l1.497,3.869l-2.136,0.902l-1.728,-3.771Zm3.006,-1.811c0.555,-0.957 0.671,-2.154 0.209,-3.249c-0.432,-1.023 -1.279,-1.745 -2.262,-2.056l-1.728,-4.463l2.336,-0.986l4.759,14.397l-1.637,0.691l-1.677,-4.334Zm-13.441,-5.689l1.885,-0.796l7.001,13.45l-1.285,0.543l-7.601,-13.197Zm18.861,8.442l-1.285,0.543l-4.758,-14.397l1.886,-0.797l4.157,14.651Z" style="fill:#818181;fill-rule:nonzero;"/><path d="M54.345,198.283c0.226,-0.096 0.332,-0.357 0.237,-0.583c-0.096,-0.226 -0.357,-0.332 -0.583,-0.236c-0.376,0.159 -0.812,-0.018 -0.97,-0.395c-0.159,-0.376 0.017,-0.811 0.394,-0.97c0.243,-0.103 0.516,-0.07 0.73,0.088c0.111,0.083 0.255,0.109 0.388,0.07c0.133,-0.038 0.241,-0.137 0.291,-0.266c0.096,-0.248 0.284,-0.442 0.528,-0.545c0.494,-0.209 1.066,0.024 1.274,0.518c0.096,0.226 0.356,0.332 0.583,0.236c0.226,-0.095 0.332,-0.356 0.236,-0.582c-0.399,-0.946 -1.493,-1.39 -2.439,-0.991c-0.315,0.133 -0.581,0.344 -0.777,0.613c-0.374,-0.127 -0.789,-0.117 -1.16,0.04c-0.828,0.349 -1.217,1.307 -0.867,2.135c0.349,0.828 1.307,1.217 2.135,0.868Z" style="fill:#818181;fill-rule:nonzero;"/></g></g><g><g opacity="0.205055"><path d="M161.184,166.755c0.236,-1.134 -0.296,-2.245 -1.27,-2.78c0.025,-0.074 0.045,-0.15 0.061,-0.227c0.233,-1.116 -0.486,-2.213 -1.602,-2.446c-0.329,-0.068 -0.662,-0.057 -0.976,0.031c-0.31,-0.804 -1.01,-1.415 -1.881,-1.597c-0.548,-0.114 -1.104,-0.049 -1.598,0.178c-0.27,-0.58 -0.804,-1.021 -1.453,-1.156c-0.625,-0.131 -1.266,0.04 -1.742,0.433c-0.356,-0.367 -0.817,-0.625 -1.326,-0.731c-0.871,-0.181 -1.757,0.1 -2.362,0.713c-0.253,-0.206 -0.553,-0.35 -0.882,-0.418c-1.116,-0.233 -2.213,0.486 -2.446,1.602c-0.016,0.077 -0.028,0.154 -0.035,0.231c-1.106,0.102 -2.038,0.908 -2.275,2.042c-0.118,0.568 -0.042,1.152 0.213,1.668l-1.415,17.121c-0.02,0.24 0.142,0.457 0.377,0.506l13.657,2.848c0.236,0.049 0.471,-0.086 0.549,-0.313l5.544,-16.261c0.44,-0.371 0.743,-0.876 0.862,-1.444Zm-17.372,-5.22c0.173,0.404 0.537,0.867 1.186,1.003c0.067,0.014 0.138,0.024 0.212,0.031c0.251,0.022 0.489,-0.14 0.533,-0.388c0.051,-0.283 -0.154,-0.54 -0.434,-0.561c-0.538,-0.039 -0.655,-0.528 -0.673,-0.628c0,-0.002 0,-0.003 -0.001,-0.005c0,-0.002 0,-0.003 0,-0.004c-0.018,-0.099 -0.023,-0.2 -0.014,-0.3c0.056,-0.627 0.636,-1.095 1.26,-1.008c0.322,0.044 0.602,0.221 0.78,0.489c0.069,0.105 0.174,0.183 0.297,0.211c0.207,0.046 0.412,-0.047 0.516,-0.221c0.354,-0.597 1.049,-0.902 1.728,-0.761c0.453,0.095 0.845,0.379 1.075,0.779c0.064,0.111 0.169,0.195 0.292,0.227c0.208,0.055 0.419,-0.033 0.528,-0.207c0.247,-0.395 0.718,-0.596 1.173,-0.501c0.478,0.1 0.839,0.506 0.883,0.991c0.013,0.142 0.077,0.276 0.191,0.36c0.184,0.135 0.428,0.121 0.594,-0.019c0.386,-0.328 0.89,-0.456 1.384,-0.354c0.601,0.126 1.073,0.577 1.234,1.155c-0.115,0.119 -0.248,0.283 -0.355,0.492c-0.309,0.602 -0.25,1.283 0.165,1.917c0.072,0.11 0.182,0.181 0.302,0.206c0.117,0.024 0.244,0.005 0.352,-0.065c0.226,-0.143 0.275,-0.457 0.131,-0.682c-0.212,-0.333 -0.249,-0.633 -0.114,-0.916c0.015,-0.031 0.031,-0.06 0.047,-0.088c0.142,-0.232 0.376,-0.399 0.643,-0.454c0.185,-0.038 0.379,-0.028 0.567,0.032c0.537,0.172 0.863,0.737 0.747,1.289c-0.029,0.142 -0.085,0.274 -0.166,0.394c-0.063,0.094 -0.093,0.209 -0.08,0.322c0.022,0.193 0.156,0.349 0.336,0.403c0.798,0.241 1.29,1.07 1.119,1.887c-0.069,0.333 -0.241,0.632 -0.489,0.86l-17.326,-3.612c-0.136,-0.308 -0.174,-0.651 -0.104,-0.984c0.152,-0.731 0.763,-1.246 1.481,-1.29Zm4.834,15.841c-1.595,-0.333 -2.623,-1.902 -2.29,-3.497c0.332,-1.596 1.901,-2.623 3.497,-2.291c1.595,0.333 2.623,1.902 2.29,3.497c-0.333,1.596 -1.901,2.623 -3.497,2.291Zm1.401,-6.721c-0.556,-0.116 -1.11,-0.106 -1.632,0.009l0.792,-4.469l3.394,0.707l-1.061,4.414c-0.433,-0.314 -0.936,-0.545 -1.493,-0.661Zm-1.774,-4.655l-0.895,5.053c-0.971,0.53 -1.713,1.466 -1.956,2.631c-0.26,1.249 0.11,2.484 0.892,3.377l-0.87,4.906l-1.864,-0.389l2.03,-16.133l2.663,0.555Zm-1.119,11.782c0.387,0.246 0.823,0.428 1.298,0.527c0.474,0.099 0.947,0.106 1.4,0.035l-1.04,4.325l-2.434,-0.507l0.776,-4.38Zm3.756,0.237c1.074,-0.506 1.906,-1.491 2.166,-2.739c0.243,-1.165 -0.063,-2.319 -0.74,-3.193l1.198,-4.99l2.662,0.555l-4.585,15.601l-1.865,-0.389l1.164,-4.845Zm-8.385,-13.217l2.149,0.448l-2.03,16.133l-1.465,-0.305l1.346,-16.276Zm11.486,18.951l-1.464,-0.305l4.586,-15.601l2.149,0.448l-5.271,15.458Z" style="fill:#818181;fill-rule:nonzero;"/><path d="M149.334,164.632c0.257,0.054 0.51,-0.112 0.563,-0.37c0.054,-0.257 -0.111,-0.51 -0.369,-0.564c-0.429,-0.089 -0.705,-0.511 -0.616,-0.94c0.09,-0.428 0.511,-0.705 0.94,-0.615c0.278,0.058 0.498,0.253 0.59,0.523c0.048,0.141 0.159,0.252 0.3,0.299c0.141,0.047 0.296,0.026 0.419,-0.058c0.236,-0.16 0.519,-0.216 0.798,-0.158c0.563,0.117 0.925,0.671 0.808,1.234c-0.054,0.257 0.112,0.51 0.369,0.564c0.258,0.053 0.511,-0.112 0.564,-0.37c0.225,-1.077 -0.469,-2.137 -1.546,-2.361c-0.36,-0.075 -0.723,-0.051 -1.06,0.066c-0.252,-0.34 -0.624,-0.584 -1.047,-0.673c-0.944,-0.196 -1.871,0.411 -2.068,1.355c-0.197,0.943 0.411,1.871 1.355,2.068Z" style="fill:#818181;fill-rule:nonzero;"/></g></g><g><g opacity="0.205055"><path d="M222.226,215.694c0.519,-1.926 -0.285,-3.889 -1.904,-4.907c0.049,-0.125 0.091,-0.253 0.126,-0.383c0.512,-1.896 -0.614,-3.854 -2.509,-4.366c-0.559,-0.15 -1.132,-0.164 -1.681,-0.044c-0.452,-1.413 -1.595,-2.535 -3.073,-2.934c-0.931,-0.251 -1.893,-0.194 -2.765,0.147c-0.408,-1.024 -1.28,-1.836 -2.383,-2.133c-1.06,-0.287 -2.18,-0.058 -3.038,0.571c-0.575,-0.668 -1.341,-1.156 -2.207,-1.39c-1.478,-0.398 -3.029,-0.004 -4.131,0.99c-0.414,-0.38 -0.916,-0.657 -1.474,-0.807c-1.896,-0.512 -3.854,0.614 -4.366,2.509c-0.035,0.131 -0.063,0.263 -0.083,0.395c-1.912,0.065 -3.594,1.357 -4.114,3.283c-0.26,0.963 -0.188,1.976 0.199,2.887l-4.145,29.292c-0.058,0.411 0.199,0.8 0.599,0.908l23.193,6.26c0.4,0.107 0.818,-0.1 0.974,-0.483l11.156,-27.4c0.793,-0.593 1.366,-1.432 1.626,-2.395Zm-29.342,-10.712c0.257,0.712 0.836,1.546 1.938,1.843c0.116,0.031 0.236,0.057 0.363,0.075c0.428,0.063 0.854,-0.192 0.954,-0.613c0.116,-0.482 -0.211,-0.944 -0.69,-1.008c-0.921,-0.121 -1.072,-0.974 -1.093,-1.147c0,-0.003 -0.001,-0.006 -0.001,-0.009c-0.001,-0.002 0,-0.005 -0.001,-0.007c-0.021,-0.172 -0.019,-0.345 0.006,-0.517c0.159,-1.073 1.203,-1.818 2.267,-1.607c0.55,0.108 1.012,0.44 1.292,0.92c0.108,0.186 0.282,0.332 0.489,0.391c0.351,0.101 0.714,-0.039 0.909,-0.328c0.67,-0.99 1.894,-1.446 3.047,-1.135c0.769,0.208 1.414,0.735 1.771,1.447c0.098,0.196 0.27,0.351 0.479,0.419c0.351,0.115 0.723,-0.016 0.928,-0.304c0.464,-0.653 1.294,-0.952 2.067,-0.743c0.811,0.219 1.391,0.953 1.418,1.792c0.008,0.244 0.105,0.482 0.293,0.638c0.303,0.25 0.724,0.251 1.022,0.026c0.697,-0.525 1.577,-0.696 2.415,-0.469c1.021,0.275 1.787,1.098 2.006,2.108c-0.209,0.193 -0.454,0.462 -0.659,0.81c-0.592,1.003 -0.559,2.18 0.092,3.312c0.113,0.197 0.295,0.329 0.498,0.384c0.199,0.053 0.419,0.033 0.613,-0.075c0.402,-0.224 0.518,-0.759 0.293,-1.161c-0.331,-0.594 -0.366,-1.113 -0.105,-1.586c0.028,-0.052 0.059,-0.1 0.09,-0.146c0.267,-0.386 0.687,-0.648 1.151,-0.716c0.321,-0.047 0.653,-0.011 0.972,0.112c0.906,0.348 1.409,1.353 1.155,2.29c-0.065,0.24 -0.175,0.463 -0.326,0.661c-0.118,0.155 -0.18,0.35 -0.17,0.545c0.019,0.335 0.235,0.616 0.538,0.727c1.348,0.494 2.11,1.967 1.736,3.355c-0.153,0.566 -0.478,1.063 -0.927,1.43l-29.424,-7.942c-0.202,-0.543 -0.234,-1.135 -0.081,-1.702c0.335,-1.241 1.437,-2.064 2.675,-2.07Zm6.727,27.716c-2.709,-0.732 -4.319,-3.531 -3.587,-6.241c0.731,-2.709 3.53,-4.319 6.24,-3.588c2.71,0.732 4.319,3.531 3.588,6.241c-0.732,2.709 -3.531,4.319 -6.241,3.588Zm3.081,-11.414c-0.945,-0.255 -1.898,-0.293 -2.807,-0.147l1.808,-7.604l5.763,1.555l-2.264,7.481c-0.712,-0.583 -1.555,-1.03 -2.5,-1.285Zm-2.585,-8.179l-2.044,8.596c-1.722,0.816 -3.09,2.349 -3.624,4.328c-0.573,2.121 -0.061,4.282 1.194,5.894l-1.984,8.348l-3.167,-0.855l5.103,-27.532l4.522,1.221Zm-3.101,20.142c0.64,0.461 1.372,0.818 2.178,1.036c0.806,0.217 1.617,0.277 2.403,0.2l-2.219,7.331l-4.134,-1.115l1.772,-7.452Zm6.433,0.783c1.896,-0.762 3.426,-2.372 3.998,-4.492c0.534,-1.979 0.123,-3.993 -0.954,-5.564l2.559,-8.458l4.521,1.22l-9.443,26.361l-3.166,-0.855l2.485,-8.212Zm-13.094,-23.56l3.65,0.985l-5.103,27.532l-2.486,-0.671l3.939,-27.846Zm17.852,33.727l-2.487,-0.671l9.443,-26.361l3.65,0.985l-10.606,26.047Z" style="fill:#818181;fill-rule:nonzero;"/><path d="M202.067,210.859c0.437,0.118 0.888,-0.141 1.006,-0.579c0.118,-0.438 -0.141,-0.888 -0.578,-1.006c-0.729,-0.197 -1.161,-0.949 -0.965,-1.678c0.197,-0.728 0.949,-1.161 1.678,-0.964c0.47,0.127 0.829,0.485 0.96,0.959c0.069,0.247 0.248,0.447 0.486,0.543c0.238,0.095 0.507,0.074 0.726,-0.057c0.422,-0.252 0.915,-0.32 1.389,-0.193c0.955,0.258 1.523,1.246 1.265,2.202c-0.118,0.438 0.141,0.888 0.579,1.006c0.438,0.118 0.888,-0.141 1.006,-0.578c0.494,-1.83 -0.593,-3.721 -2.423,-4.215c-0.61,-0.164 -1.237,-0.159 -1.828,0.009c-0.399,-0.61 -1.014,-1.067 -1.733,-1.261c-1.602,-0.433 -3.257,0.519 -3.69,2.121c-0.432,1.603 0.519,3.258 2.122,3.691Z" style="fill:#818181;fill-rule:nonzero;"/></g></g></svg>