<?xml version="1.0" encoding="UTF-8" standalone="no"?><!DOCTYPE svg PUBLIC "-//W3C//DTD SVG 1.1//EN" "http://www.w3.org/Graphics/SVG/1.1/DTD/svg11.dtd"><svg width="100%" height="100%" viewBox="0 0 310 39" version="1.1" xmlns="http://www.w3.org/2000/svg" xmlns:xlink="http://www.w3.org/1999/xlink" xml:space="preserve" style="fill-rule:evenodd;clip-rule:evenodd;stroke-linejoin:round;stroke-miterlimit:1.41421;"><g><path d="M22.793,16.343c-0.254,1.501 -0.624,2.524 -1.111,3.07c-2.612,2.885 -6.296,4.502 -11.052,4.853c-1.306,0.098 -2.748,0.049 -4.327,-0.146c0.078,0.799 0.585,5.379 1.521,13.741c-0.605,0.604 -1.394,0.936 -2.369,0.994c-0.331,0.02 -1.091,0.049 -2.28,0.088c-1.208,-5.536 -2.144,-12.932 -2.807,-22.191c-0.409,-5.808 -0.477,-10.544 -0.204,-14.208c3.528,-0.936 6.656,-1.404 9.385,-1.404c5.282,0 9.248,1.511 11.899,4.532c0.916,1.052 1.462,2.826 1.637,5.321c0.117,1.696 0.019,3.479 -0.292,5.35Zm-6.198,-8.449c-3.139,-1.657 -5.848,-2.407 -8.128,-2.251c-0.76,0.058 -1.93,0.282 -3.509,0.672c0.02,1.267 0.078,2.622 0.176,4.064c0.078,1.267 0.331,4.151 0.76,8.654c2.475,0.195 4.142,0.263 4.999,0.204c2.32,-0.155 4.376,-1.091 6.169,-2.806c0.663,-0.624 0.897,-2.261 0.702,-4.912c-0.136,-2.085 -0.526,-3.294 -1.169,-3.625Z" style="fill:#303030;fill-rule:nonzero;"/><path d="M65.127,23.184c-1.423,6.16 -5.984,9.239 -13.683,9.239c-4.911,0 -8.839,-0.429 -11.782,-1.286c-3.625,-1.053 -6.422,-3.06 -8.391,-6.023c-1.871,-2.807 -2.807,-6.149 -2.807,-10.028c0,-2.768 0.761,-5.214 2.281,-7.338c3.684,-5.165 8.284,-7.748 13.799,-7.748c3.275,0 7.134,0.945 11.578,2.836c3.06,1.306 5.438,3.43 7.134,6.373c1.598,2.768 2.397,5.887 2.397,9.356c0,1.559 -0.175,3.099 -0.526,4.619Zm-4.356,-1.374c0.487,-0.877 0.731,-1.9 0.731,-3.07c0,-2.163 -0.77,-4.346 -2.31,-6.548c-1.326,-1.891 -2.875,-3.372 -4.649,-4.444c-3.489,-2.105 -6.938,-3.158 -10.349,-3.158c-4.581,0 -7.543,1.871 -8.888,5.613c-1.111,3.08 -1.667,5.399 -1.667,6.959c0,1.247 0.215,2.465 0.643,3.654c0.956,2.632 3.246,4.308 6.871,5.029c0.253,0.058 1.111,0.175 2.573,0.351l0.935,0.117c3.899,0.487 6.16,0.731 6.783,0.731c4.288,0 7.397,-1.745 9.327,-5.234Z" style="fill:#303030;fill-rule:nonzero;"/><path d="M92.697,16.343c-0.254,1.501 -0.624,2.524 -1.111,3.07c-2.612,2.885 -6.296,4.502 -11.052,4.853c-1.306,0.098 -2.748,0.049 -4.327,-0.146c0.078,0.799 0.585,5.379 1.521,13.741c-0.605,0.604 -1.394,0.936 -2.368,0.994c-0.332,0.02 -1.092,0.049 -2.281,0.088c-1.208,-5.536 -2.144,-12.932 -2.807,-22.191c-0.409,-5.808 -0.477,-10.544 -0.204,-14.208c3.528,-0.936 6.656,-1.404 9.385,-1.404c5.282,0 9.248,1.511 11.899,4.532c0.916,1.052 1.462,2.826 1.637,5.321c0.117,1.696 0.019,3.479 -0.292,5.35Zm-6.198,-8.449c-3.138,-1.657 -5.848,-2.407 -8.128,-2.251c-0.76,0.058 -1.93,0.282 -3.509,0.672c0.02,1.267 0.078,2.622 0.176,4.064c0.078,1.267 0.331,4.151 0.76,8.654c2.475,0.195 4.142,0.263 4.999,0.204c2.32,-0.155 4.376,-1.091 6.169,-2.806c0.663,-0.624 0.897,-2.261 0.702,-4.912c-0.136,-2.085 -0.526,-3.294 -1.169,-3.625Z" style="fill:#303030;fill-rule:nonzero;"/><path d="M124.301,26.839c0.546,0.331 0.819,0.897 0.819,1.696c0,0.565 -0.166,1.159 -0.497,1.783c-0.371,0.741 -0.809,1.131 -1.316,1.17c-3.255,0.779 -6.052,1.169 -8.391,1.169c-1.15,0 -2.095,-0.078 -2.836,-0.234c-7.27,-1.54 -11.85,-5.038 -13.741,-10.496c-0.507,-1.462 -0.76,-2.972 -0.76,-4.531c0,-3.275 0.941,-6.335 2.821,-9.181c1.881,-2.845 4.332,-4.902 7.353,-6.168c1.423,-0.605 2.836,-0.907 4.24,-0.907c3.625,0 6.665,1.969 9.121,5.906c1.111,1.793 1.793,4.688 2.047,8.683c0.019,0.351 0.058,1.033 0.117,2.047c-0.604,0.643 -1.355,0.964 -2.251,0.964c-0.916,0 -1.53,-0.311 -1.842,-0.935c-0.604,-2.378 -1.199,-4.766 -1.784,-7.163c-0.916,-2.573 -2.436,-4.015 -4.561,-4.327c-0.272,-0.039 -0.458,-0.058 -0.555,-0.058l-0.497,0c-2.885,0 -5.399,1.734 -7.543,5.204c-1.15,1.871 -1.725,3.761 -1.725,5.671c0,1.911 0.575,3.85 1.725,5.819c1.618,2.787 4.405,4.385 8.362,4.794c1.13,0.117 2.962,0.176 5.496,0.176c1.014,0 2.339,-0.176 3.976,-0.527c0.546,-0.117 1.287,-0.302 2.222,-0.555Z" style="fill:#303030;fill-rule:nonzero;"/><path d="M164.092,23.184c-1.423,6.16 -5.984,9.239 -13.683,9.239c-4.912,0 -8.839,-0.429 -11.782,-1.286c-3.625,-1.053 -6.422,-3.06 -8.391,-6.023c-1.871,-2.807 -2.807,-6.149 -2.807,-10.028c0,-2.768 0.761,-5.214 2.281,-7.338c3.684,-5.165 8.283,-7.748 13.799,-7.748c3.275,0 7.134,0.945 11.578,2.836c3.06,1.306 5.438,3.43 7.134,6.373c1.598,2.768 2.397,5.887 2.397,9.356c0,1.559 -0.175,3.099 -0.526,4.619Zm-4.356,-1.374c0.487,-0.877 0.73,-1.9 0.73,-3.07c0,-2.163 -0.769,-4.346 -2.309,-6.548c-1.326,-1.891 -2.875,-3.372 -4.649,-4.444c-3.489,-2.105 -6.939,-3.158 -10.349,-3.158c-4.581,0 -7.543,1.871 -8.888,5.613c-1.111,3.08 -1.667,5.399 -1.667,6.959c0,1.247 0.215,2.465 0.643,3.654c0.955,2.632 3.246,4.308 6.871,5.029c0.253,0.058 1.111,0.175 2.573,0.351l0.935,0.117c3.898,0.487 6.159,0.731 6.783,0.731c4.288,0 7.397,-1.745 9.327,-5.234Z" style="fill:#303030;fill-rule:nonzero;"/><path d="M198.708,7.543c-1.228,-1.131 -2.797,-1.822 -4.708,-2.076c-2.67,-0.351 -4.96,-0.156 -6.87,0.585c-1.696,0.643 -3.645,1.93 -5.847,3.859c-2.963,2.592 -5.078,5.155 -6.345,7.689c-0.214,1.657 -0.243,3.577 -0.087,5.76c0.078,1.13 0.341,3.469 0.789,7.017c0.234,1.832 0.39,3.225 0.468,4.18l-3.889,0.263c-0.175,-2.124 -0.458,-4.599 -0.847,-7.426l-1.287,-9.121c-0.74,-5.243 -1.101,-9.57 -1.082,-12.981l0.702,-0.029l0.468,-0.088c0.818,-0.487 1.403,-0.741 1.754,-0.76c0.39,-0.02 0.711,0.097 0.965,0.351l0.438,5.993c4.386,-6.588 9.921,-10.116 16.607,-10.584c1.169,-0.078 2.875,-0.009 5.116,0.205c2.573,0.253 4.122,0.624 4.649,1.111c0.194,1.014 0.292,1.998 0.292,2.953c0,1.968 -0.429,3.002 -1.286,3.099Z" style="fill:#303030;fill-rule:nonzero;"/><path d="M238.557,29.938c0.117,0.234 0.175,0.448 0.175,0.643c0,0.936 -0.848,1.404 -2.544,1.404c-1.227,0 -2.056,-0.303 -2.485,-0.907c-1.091,-1.54 -2.241,-4.531 -3.45,-8.975c-1.286,-4.737 -2.465,-8.021 -3.537,-9.853c-1.871,-3.216 -4.522,-5.048 -7.952,-5.496c-0.449,-0.059 -0.829,-0.088 -1.141,-0.088c-3.508,0 -6.393,1.92 -8.654,5.759c-1.91,3.255 -2.865,6.774 -2.865,10.555c0,1.15 0.107,2.348 0.322,3.596c-0.741,0.37 -1.676,0.555 -2.807,0.555c-1.13,0 -1.978,-0.282 -2.543,-0.848c0,-1.072 -0.039,-2.436 -0.117,-4.093c-0.176,-3.722 -0.263,-6.061 -0.263,-7.016c0,-5.38 0.916,-9.473 2.748,-12.28c0.448,0 1.077,0.186 1.886,0.556c0.808,0.37 1.301,0.731 1.476,1.082c0.097,0.156 0.146,0.331 0.146,0.526c0,0.175 -0.146,0.672 -0.438,1.491c-0.156,0.448 -0.234,0.799 -0.234,1.052c0,0.488 0.175,0.955 0.526,1.404c0.975,-2.203 2.466,-3.918 4.473,-5.146c2.008,-1.228 4.239,-1.842 6.695,-1.842c1.852,0 3.606,0.332 5.263,0.994c4.385,1.755 8.332,7.261 11.84,16.519c0.8,2.124 1.959,5.594 3.48,10.408Z" style="fill:#303030;fill-rule:nonzero;"/><path d="M273.465,28.71c0.019,0.253 -1.413,0.741 -4.298,1.462c-4.23,1.052 -9.317,1.579 -15.261,1.579l-3.041,0c-3.606,0 -6.968,-1.725 -10.086,-5.175c-1.365,-1.832 -2.047,-4.171 -2.047,-7.017c0,-7.348 3.313,-12.503 9.94,-15.466c3.411,-1.52 6.89,-2.28 10.438,-2.28c2.378,0 4.522,0.974 6.432,2.923c1.364,1.384 2.426,3.031 3.186,4.941c0.02,0.137 0.078,0.351 0.176,0.643c0,0.137 0.019,0.351 0.058,0.644c-0.058,0.078 -0.195,0.204 -0.409,0.38c-7.66,4.268 -16.002,7.299 -25.026,9.092c-0.078,0.059 -0.117,0.176 -0.117,0.351c0,0.741 0.317,1.666 0.95,2.777c0.633,1.111 1.272,1.803 1.915,2.076c2.534,1.033 5.243,1.55 8.128,1.55c1.715,0 3.674,-0.205 5.876,-0.614l6.608,-1.228c2.631,-0.487 4.502,-0.731 5.613,-0.731c0.37,0 0.594,0.117 0.672,0.351c0,0.019 0.02,0.302 0.059,0.848l0.234,2.894Zm-11.929,-19.267c-0.389,-2.202 -1.92,-3.303 -4.59,-3.303c-0.701,0 -1.618,0.136 -2.748,0.409c-3.567,0.858 -6.51,2.641 -8.829,5.35c-0.955,1.111 -1.433,2.144 -1.433,3.099c0,0.507 0.175,0.897 0.526,1.17c1.774,-0.371 3.694,-1.004 5.76,-1.901c1.033,-0.467 3.109,-1.384 6.227,-2.748c0.604,-0.253 1.823,-0.77 3.655,-1.549c0.078,-0.059 0.555,-0.234 1.432,-0.527Z" style="fill:#303030;fill-rule:nonzero;"/><path d="M309.162,28.71c0.02,0.253 -1.413,0.741 -4.297,1.462c-4.23,1.052 -9.317,1.579 -15.262,1.579l-3.04,0c-3.606,0 -6.968,-1.725 -10.087,-5.175c-1.364,-1.832 -2.046,-4.171 -2.046,-7.017c0,-7.348 3.313,-12.503 9.94,-15.466c3.411,-1.52 6.89,-2.28 10.437,-2.28c2.378,0 4.522,0.974 6.432,2.923c1.365,1.384 2.427,3.031 3.187,4.941c0.019,0.137 0.078,0.351 0.175,0.643c0,0.137 0.02,0.351 0.059,0.644c-0.059,0.078 -0.195,0.204 -0.409,0.38c-7.66,4.268 -16.002,7.299 -25.027,9.092c-0.078,0.059 -0.117,0.176 -0.117,0.351c0,0.741 0.317,1.666 0.951,2.777c0.633,1.111 1.271,1.803 1.915,2.076c2.533,1.033 5.243,1.55 8.127,1.55c1.715,0 3.674,-0.205 5.877,-0.614l6.607,-1.228c2.631,-0.487 4.503,-0.731 5.613,-0.731c0.371,0 0.595,0.117 0.673,0.351c0,0.019 0.019,0.302 0.058,0.848l0.234,2.894Zm-11.928,-19.267c-0.39,-2.202 -1.92,-3.303 -4.59,-3.303c-0.702,0 -1.618,0.136 -2.748,0.409c-3.567,0.858 -6.51,2.641 -8.83,5.35c-0.955,1.111 -1.432,2.144 -1.432,3.099c0,0.507 0.175,0.897 0.526,1.17c1.774,-0.371 3.693,-1.004 5.759,-1.901c1.033,-0.467 3.109,-1.384 6.228,-2.748c0.604,-0.253 1.822,-0.77 3.654,-1.549c0.078,-0.059 0.556,-0.234 1.433,-0.527Z" style="fill:#303030;fill-rule:nonzero;"/></g></svg>