<?xml version="1.0" encoding="UTF-8" standalone="no"?><!DOCTYPE svg PUBLIC "-//W3C//DTD SVG 1.1//EN" "http://www.w3.org/Graphics/SVG/1.1/DTD/svg11.dtd"><svg width="100%" height="100%" viewBox="0 0 50 50" version="1.1" xmlns="http://www.w3.org/2000/svg" xmlns:xlink="http://www.w3.org/1999/xlink" xml:space="preserve" style="fill-rule:evenodd;clip-rule:evenodd;stroke-linejoin:round;stroke-miterlimit:1.41421;"><rect id="Artboard2" x="0" y="0" width="50" height="50" style="fill:none;"/><path d="M50,0l0,50l-50,0l0,-50l50,0Zm-25,2.84l7.093,13.38c0.13,0.244 0.313,0.455 0.537,0.618c0.223,0.162 0.481,0.271 0.753,0.319l14.918,2.612l-10.534,10.881c-0.192,0.198 -0.336,0.438 -0.422,0.701c-0.085,0.263 -0.109,0.541 -0.07,0.815l2.126,14.994l-13.604,-6.655c-0.248,-0.122 -0.521,-0.185 -0.797,-0.185c-0.276,0 -0.549,0.063 -0.797,0.185l-13.604,6.655l2.126,-14.994c0.039,-0.274 0.015,-0.552 -0.07,-0.815c-0.086,-0.263 -0.23,-0.503 -0.422,-0.701l-10.534,-10.881l14.918,-2.612c0.272,-0.048 0.53,-0.157 0.753,-0.319c0.224,-0.163 0.407,-0.374 0.537,-0.618l7.093,-13.38Z" style="fill:#fff;"/></svg>