<svg viewBox="0 0 2242 1024" xmlns="http://www.w3.org/2000/svg" fill-rule="evenodd" clip-rule="evenodd" stroke-linejoin="round" stroke-miterlimit="1.414"><path fill="none" d="M0 0h2241.997v1024H0z"/><path d="M66.538 253.427C151.048 168.97 235.506 84.433 320.015 0c106.68 106.63 213.361 213.31 319.99 319.99C576.053 384.02 512 447.973 448.047 512c85.304 85.38 170.684 170.659 255.987 256.039-128.006 85.33-256.012 170.658-384.019 255.962C213.335 917.346 106.655 810.69 0 703.985c21.172-148.18 42.344-296.361 63.491-444.516.18-2.432 1.203-4.454 3.047-6.042z" fill="#00d1b2" fill-rule="nonzero"/><g fill="#242424" fill-rule="nonzero"><path d="M1905.551 405.115c14.44-7.476 32.488-7.424 47.055-.256 5.684 2.663 9.883 7.936 11.495 14.004 26.088 84.97 52.125 169.967 78.187 254.938 2.201 5.35.793 11.725-3.354 15.719-9.421 8.986-23.374 13.517-36.2 10.855-5.12-.999-9.498-4.788-10.753-9.882-5.53-18.05-10.343-36.303-15.693-54.403-31.26.026-62.519 0-93.778.026-5.146 17.69-10.035 35.457-15.232 53.122-1.152 4.992-4.685 9.37-9.729 10.702-12.16 3.277-25.652-.333-35.458-7.988-5.504-4.07-8.346-11.649-5.555-18.126 25.908-84.638 51.92-169.224 77.828-253.837 1.613-6.195 5.3-12.007 11.187-14.874m-11.955 189.194c23.732.025 47.49.025 71.222.025-11.827-41.935-23.732-83.87-35.611-125.779a77052.949 77052.949 0 0 0-35.611 125.754zM878.174 419.452c-.768-12.007 12.75-17.486 22.81-17.486 28.187-.282 56.4-.205 84.587-.026 22.606.564 47.567 5.914 62.672 24.117 15.95 19.764 16.692 47.362 12.212 71.274-3.405 18.1-15.284 34.331-32.31 41.73 19.842 7.399 37.379 23.886 40.195 45.698 3.277 26.242 3.686 54.505-7.86 78.93-12.084 24.832-40.527 36.967-66.998 37.377-30.824.282-61.674.282-92.498.026-9.933.025-23.118-5.53-22.81-17.153-.077-88.146-.077-176.316 0-264.487m52.79 29.057c-.026 23.22-.026 46.415 0 69.636 18.816-.666 37.89 1.51 56.553-1.357 17.69-4.02 24.346-24.552 21.581-40.655-1.203-14.158-13.082-26.446-27.418-27.24-16.872-.921-33.82-.153-50.717-.384m0 111.443c-.025 31.515-.025 63.056 0 94.596 18.382-.384 36.866.897 55.197-.768 14.31-1.33 26.19-12.775 28.878-26.753 2.74-14.823 3.149-30.645-1.255-45.186-3.917-13.185-17.408-21.019-30.619-21.53-17.383-.871-34.817-.155-52.2-.36zM1122.41 403.272c10.726-2.356 22.708-1.792 32.283 4.02 4.198 2.636 5.837 7.756 5.632 12.518.102 63.184-.077 126.368.077 189.552.102 12.775 2.33 26.651 11.648 36.098 10.702 10.753 27.035 12.417 41.398 11.009 11.904-1.024 24.065-6.682 30.209-17.333 7.194-12.032 6.836-26.548 6.836-40.066-.026-59.727-.026-119.455 0-179.183-.461-5.658 2.304-11.47 7.654-13.8 12.366-5.785 27.803-5.734 39.759 1.102 5.223 3.097 6.067 9.575 5.837 15.104-.128 63.159.077 126.317-.102 189.476-.205 22.094-4.993 45.57-20.072 62.518-16.538 18.433-41.422 27.137-65.616 28.878-26.318 1.895-54.351-1.536-76.675-16.564-12.494-8.09-22.145-20.276-27.266-34.229-6.22-16.128-7.091-33.64-6.912-50.741.102-61.316-.18-122.656.128-183.997-.23-8.346 8.09-12.826 15.182-14.362zM1358.99 406.293c11.624-5.786 26.037-5.786 37.814-.384 5.427 2.227 8.5 8.013 8.064 13.748.051 78.288 0 156.603.026 234.891 32.667.052 65.308-.025 97.976.026 4.915-.333 10.112 1.485 12.826 5.837 6.989 10.958 6.81 26.702-1.562 36.892-4.096 4.685-10.778 3.84-16.308 3.993-41.039-.204-82.052.154-123.09-.179-10.036 0-23.682-5.3-23.016-17.332-.128-88.068-.077-176.111-.026-264.18-.41-5.402 2.202-11.008 7.297-13.312zM1557.63 408.315c9.166-7.962 22.453-7.347 33.564-4.787 12.672 2.867 19.764 14.874 25.908 25.243 17.153 30.952 34.076 62.032 51.177 93.035 15.182-27.573 30.312-55.197 45.468-82.795 5.12-9.242 10.036-18.817 17.23-26.676 9.242-10.343 24.782-11.828 37.685-9.499 11.315 2.253 18.893 13.339 18.304 24.629.23 84.612.026 169.25.103 253.862.435 5.453-1.357 11.393-6.35 14.26-11.366 6.938-26.394 7.271-38.273 1.46-5.146-2.305-8.935-7.527-8.55-13.262-.155-58.499-.026-117.023-.078-175.522-16.205 28.647-32.13 57.475-48.514 86.046-6.63 12.877-27.7 13.107-34.357.153-16.231-29.646-31.771-59.65-47.772-89.4-.102 59.523.077 119.047-.102 178.57.256 4.838-2.253 9.6-6.426 12.058-11.495 6.886-26.6 7.143-38.504 1.152-5.044-2.33-8.551-7.604-8.193-13.21-.102-84.536-.025-169.071-.025-253.607-.103-7.783 1.433-16.41 7.706-21.71z"/></g><g fill="#b4b5b5" fill-rule="nonzero"><path d="M2131.022 556.521c5.145-2.662 12.723.538 12.954 6.733 1.229 8.013-10.394 12.391-15.361 6.4-4.199-3.686-2.56-11.008 2.407-13.133zM2130.638 602.578c3.763-2.714 11.7-1.434 11.34 4.326.206 28.06.154 56.118.026 84.203 1.613 8.628-14.029 9.293-13.107.538.025-29.109-.512-58.243.281-87.326l1.46-1.741zM2189.725 602.296c16.257-6.119 35.56.538 45.314 14.747 9.37 12.544 6.4 29.057 6.682 43.675.077 19.867-17.588 37.941-37.403 38.607-20.916 1.203-40.322-17.818-40.168-38.658-.256-8.55-.384-17.153.179-25.704.947-14.67 11.828-27.598 25.396-32.667m7.655 10.574c-11.06 2.585-19.764 13.287-19.943 24.68-.308 8.499-.41 17.05.128 25.575.921 12.263 11.52 23.681 24.116 24.014 13.466.922 25.704-10.957 26.625-24.142.461-9.37.563-18.791-.128-28.136-1.817-14.055-16.666-25.55-30.798-21.991zM2092.696 682.3c4.557-3.994 12.494-1.561 14.235 4.199 3.302 7.117-5.197 15.437-12.238 11.981-6.426-2.56-7.45-12.135-1.997-16.18z"/></g></svg>