<svg viewBox="0 0 5975 1023" xmlns="http://www.w3.org/2000/svg" fill-rule="evenodd" clip-rule="evenodd" stroke-linejoin="round" stroke-miterlimit="1.414"><g transform="matrix(4.25542 0 0 1 -68425.3 -1.62)"><path fill="none" d="M16079.6 1.623h1404.07v1022.38H16079.6z"/><clipPath id="a"><path d="M16079.6 1.623h1404.07v1022.38H16079.6z"/></clipPath><g fill="#191932" fill-rule="nonzero" clip-path="url(#a)"><path d="M16262.878 1.623h12.449c12.137 6.107 25.648 16.198 33.885 58.554 4.462 17.925 5.74 52.048 1.092 71.3-10.39 45.012-26.553 48.597-40.468 47.667-9.548.93-17.879-20.315-25.274-43.418 3.557-12.746 7.114-25.36 10.765-37.442 11.108 46.206 28.955 50.587 41.186 9.958 1.591-35.186-7.894-43.816-14.072-47.534-18.94-9.56-37.66 17.526-53.916 57.36-16.194 39.832-36.038 61.475-54.322 35.45-8.986-11.418-14.478-46.073-20.593-73.69 6.646-23.767 13.448-51.517 22.559-54.97 8.892-4.381 21.154-8.364 25.522 33.726-11.17 3.85-23.4-12.614-33.76 11.418-3.869 31.07 5.898 42.754 11.327 45.277 16.006 7.17 29.797-32.265 42.777-65.724 12.262-32.265 26.677-43.55 40.843-47.932zM16473.893 192.687c12.044-86.171 34.01-154.02 58.378-149.505 14.79-2.922 32.824 26.555 36.288 94.536 1.373 38.638 2.153 86.836-5.149 116.046-6.677 23.236-15.663 4.78-23.151.133 5.772-40.098 14.384-89.358 8.424-137.954-6.802-42.754-21.248-22.174-27.769 11.419-17.442 82.985-24.337 195.313-29.08 302.065-2.153 70.77-4.898 146.85 1.56 215.097 4.774 47.003 18.128 62.006 29.174 54.305 13.198-4.78 24.493-36.646 34.415-71.566 1.685-103.565 8.768-212.043 26.74-286.398 12.823-53.508 32.73-74.221 49.766-50.189 13.853 25.227 15.133 95.997 16.942 151.1 6.49-6.772 12.98-13.677 19.439-20.98 4.337-84.047 7.114-169.82 13.011-252.141 4.93-72.629 21.56-129.722 39.72-123.482 9.734-1.726 17.067 28.945 24.118 52.845 12.762-46.206 32.668-77.01 47.52-30.007 10.39 25.758 10.858 80.064 11.295 125.34h-10.296c-2.278-26.422-5.43-51.251-9.704-72.761-14.852 33.592-17.16 106.088-20.25 169.157 7.863.132 15.757.398 23.62.398-.687 9.825-2.09 29.21-2.777 38.903-7.457-.265-14.915-.132-22.372-.398-9.11 182.567-17.535 365.665-26.958 547.701-3.4 70.77-15.6 134.236-32.855 147.647h-13.822c-7.489-8.498-13.635-28.414-19.439-49.127-6.958 20.58-14.321 39.036-22.465 49.127h-13.76c-12.574-13.012-23.4-61.475-21.03-119.499 1.061-85.507 23.37-112.195 39.065-135.697 5.117-99.847 9.797-199.96 14.976-299.808-6.053 7.303-12.106 14.606-18.19 21.775-3.058 89.226-8.924 184.692-25.585 246.167-12.7 49.791-32.044 58.554-47.863 34.39-9.236-13.81-13.729-53.111-18.16-87.102-12.324 57.094-28.861 99.848-47.207 108.213-14.665 5.974-31.17 4.248-43.246-36.647-10.858-37.31-14.664-98.918-15.382-155.879-1.935-140.61 4.96-285.6 22.06-407.224m235.695 96.794c7.395.398 14.79.531 22.216.531 2.06-42.754 5.148-84.844 5.772-128.66-1.435-17.128-5.897-25.36-8.861-36.912-14.696 31.734-15.788 104.76-19.127 165.041m-1.528 39.036c-7.02 137.556-13.448 275.378-20.469 412.8 7.676-5.841 15.352-11.418 23.058-17.127 6.49-131.847 12.7-263.959 19.532-395.407-7.394 0-14.758-.133-22.121-.266m-103.933 84.977c-8.518 76.213-14.227 162.65-11.482 247.362.655 31.6 10.609 47.4 16.1 26.156 13.48-42.753 16.943-118.701 20.281-184.691-2.09-16.066-5.647-30.14-6.022-49.393-.561-28.148 4.93-48.33 8.144-70.105-1.81-13.942-3.744-27.485-5.835-40.63-10.577-7.834-16.88 37.974-21.186 71.3m82.341 354.911c-2.34 52.712-5.117 105.026-8.83 156.145 6.74 5.576 15.133 24.298 20.125-5.577 8.144-48.463 7.988-112.328 11.67-167.962-7.676 5.843-15.32 11.552-22.965 17.394m-59.595 136.627c2.31 21.111 8.487 43.948 13.854 24.696 9.08-29.61 8.83-84.844 11.732-127.863-10.64 21.244-24.618 44.745-25.586 103.167zM16993.898 109.038c12.511-49.79 30.171-71.3 47.083-65.193 12.293 1.594 26.458 25.228 30.858 78.471 3.37 46.339 1.123 108.61-9.766 133.174-6.116 15.27-12.98 1.328-19.064-6.24 5.834-32.265 13.479-69.707 10.203-113.656-3.745-50.057-19.782-54.97-28.83-29.211-10.11 27.883-10.235 89.89-5.18 131.448 8.362 64.53 24.4 100.379 34.977 157.074 18.003 89.358 18.346 237.536-.967 323.84-20.125 85.243-53.511 104.097-79.096 55.767-25.585-49.26-26.521-223.86-2.902-283.743 12.73-35.584 32.886-26.688 38.69 40.763-7.77 10.223-16.942 12.613-22.87 39.036-9.143 39.169-5.93 114.187 5.647 138.485 12.075 27.087 28.611 1.46 33.978-51.65 5.367-50.853 3.557-111.664-2.465-159.995-9.735-79.798-28.955-129.987-38.003-211.645-6.584-58.156-3.276-132.377 7.707-176.725z"/><path d="M16089.584 159.228c7.489-39.7 17.505-67.052 28.144-89.358-3.089 22.571-10.265 53.243-3.869 77.673 11.482 44.215 27.614 55.766 42.247 70.239 55.913 40.63 113.667 40.231 169.455-3.585 14.416-16.464 31.701-25.626 41.342-79.798-.405-13.145-1.216-39.568-1.59-52.712 5.927 25.227 18.72 47.932 14.82 92.146-6.49 40.098-18.003 56.695-28.394 71.434-26.334 33.99-53.822 50.986-81.31 54.438l1.84 12.746c-23.338 1.726-46.708 1.594-70.078-.132l1.685-12.747c-29.891-4.913-59.97-22.837-88.27-65.591-10.202-13.942-18.003-46.074-26.022-74.753zM17282.262 90.184c13.042-30.804 30.203 22.44 26.896 84.446-1.997 56.695-20.032 84.71-30.048 46.604-10.109-33.061-8.143-107.017 3.152-131.05zM17443.2 153.651c11.45-7.17 22.932-13.277 34.477-18.987-2.59 51.783-5.148 103.566-7.988 154.95l13.979.796v33.062c-5.211 3.717-10.484 5.842-15.695 8.099-4.867 107.15-11.67 212.84-15.351 320.787-2.122 38.24 8.643 37.177 14.26 46.737-4.182 26.157-7.52 56.563-13.698 75.417-10.14 25.227-25.523 14.074-31.14-32.53-5.085-42.09-3.026-91.749-1.279-136.361 4.556-92.147 9.236-184.16 13.916-276.174-1.966-.399-5.866-1.328-7.831-1.726.468-9.03 1.372-27.087 1.84-36.116 1.997-.929 5.991-2.655 7.988-3.584 2.122-44.746 4.306-89.624 6.521-134.37z"/><path d="M16093.235 249.117c9.89 32.397 20.811 59.617 32.949 73.425 26.49 32.53 54.103 45.011 81.53 52.58 47.176 8.232 95.008.398 140.905-50.323 12.263-12.613 23.401-39.301 32.95-74.221-5.836 103.167-11.701 207.263-22.684 303.26-9.08 85.11-24.275 154.153-35.726 232.89-7.114 47.002-7.083 111.531-17.723 148.576-11.919 41.16-27.27 59.35-42.122 70.105-29.735 7.436-61.935 14.473-88.269-55.766-15.039-37.177-14.29-120.959-24.056-175.397-14.26-85.64-29.36-169.422-39.563-265.552-7.146 49.393-13.573 107.682-9.143 166.767 4.525 97.723 26.272 159.862 48.176 175.928-12.7 13.942-26.272 32.397-39.252 12.614-16.412-22.041-28.019-86.172-31.607-156.278V643.86c2.403-76.612 13.853-139.415 27.55-186.683-5.366-68.512-8.798-139.282-13.915-208.06zM17330.468 251.905c11.233.133 22.465 0 33.729 0-1.31 22.705-2.59 45.41-3.9 67.982 12.168-28.414 27.488-50.986 40.718-21.244 11.388 28.28 13.822 89.889 13.635 141.406-.25 101.706-5.273 212.176-22.31 288.257-13.572 61.21-36.692 77.408-53.728 33.326-3.526 75.816-7.457 151.232-11.046 226.915-11.295 12.613-22.558 25.493-33.947 35.45h-1.778c6.146-97.324 9.454-197.304 15.538-294.762-12.48 42.09-29.735 73.69-45.305 43.02-13.073-30.539-13.167-102.636-10.358-157.074 5.46-108.346 10.92-216.69 16.287-325.169h33.292c-5.585 111.532-11.545 222.798-16.63 334.728-.625 19.917-2.684 55.766 3.775 61.343 12.886 14.207 22.309-41.957 24.899-88.827 6.115-114.719 11.388-230.234 17.13-345.35m25.023 171.413c-4.618 87.234-8.206 175.397-13.105 262.366 7.925 21.377 17.879 15.136 24.088-14.871 12.106-59.484 15.444-141.54 16.505-217.753.187-34.522.53-82.055-8.58-97.325-8.986-2.655-17.535 30.14-18.908 67.583zM16779.855 481.475c6.709-85.906 20.656-173.007 42.59-194.384 10.484-7.435 22.965-13.676 32.044 15.402 9.142 36.248 7.426 97.856 3.152 142.734-8.238 84.047-29.143 131.581-49.736 139.946.437 37.709-2.121 89.226 7.302 111.134 17.535 24.165 34.602-22.572 45.96-75.948 1.903-97.06 8.361-197.57 24.212-270.73 12.917-60.812 34.602-84.712 52.793-58.024 12.636 24.564 12.168 97.192 8.05 144.86-7.457 89.756-29.455 140.476-50.796 148.841.686 35.053-.936 88.163 9.017 101.84 12.356 15.401 23.307-23.635 33.541-46.605-3.4 39.169-6.177 83.25-14.29 110.337-13.01 43.948-32.418 47.4-47.052 16.597-8.705-17.66-11.981-58.555-15.132-94.006-12.98 64.662-31.233 115.648-51.92 113.79-12.917 1.858-27.613-21.378-32.543-76.48-6.74-73.956-2.59-156.144 2.808-229.304m55.477-145.788c-16.724 39.966-20.718 129.855-25.398 202.616 16.88-16.995 31.7-75.815 33.042-151.895.842-21.776-.219-61.21-7.644-50.72m81.841 17.26c-11.232 50.588-15.57 120.295-19.844 185.62 20-16.862 36.755-99.183 32.98-188.276-2.028-28.015-9.985-13.277-13.136 2.656zM17112.62 305.547c10.857-25.759 24.118-29.742 36.13-18.854 14.416 14.34 18.69 101.706 9.08 145.124-4.18 19.65-10.327 7.435-15.507 5.975 2.122-39.036 4.961-84.313-3.806-112.594-18.534 55.367-24.462 155.746-28.113 245.503-.406 41.558-3.807 102.237 6.895 126.137 19.439 23.236 39.782-32.929 49.143-103.167 5.616-100.512 10.11-202.35 15.164-303.526 11.388-.133 22.777-.133 34.197.133-1.061 13.808-3.12 41.426-4.15 55.102 10.047-28.68 21.872-72.496 34.883-50.588 14.634 29.21 10.952 140.344-6.115 141.54-9.766 7.568-10.765-42.223-13.604-69.443-7.177 11.42-17.13 21.643-18.316 60.148-6.333 116.843-11.544 234.88-17.441 352.255-11.358.132-22.684.132-34.01-.266 2.028-34.123 4.088-68.247 6.084-102.503-11.513 48.33-24.649 95.864-41.217 106.486-14.82 12.349-33.697 1.594-41.716-60.014-7.582-61.343-4.899-135.034-1.56-199.961 5.086-85.11 15.101-173.671 33.978-217.487z"/></g></g></svg>