<svg viewBox="0 0 2053 1024" xmlns="http://www.w3.org/2000/svg" fill-rule="evenodd" clip-rule="evenodd" stroke-linejoin="round" stroke-miterlimit="1.414"><path fill="none" d="M.004 0h2052.7v1024H.004z"/><path d="M1887.703 770.481c0-32.885-26.675-59.584-59.593-59.584H224.586c-32.88 0-59.583 26.699-59.583 59.584v119.934c0 32.886 26.703 59.584 59.583 59.584H1828.11c32.918 0 59.593-26.698 59.593-59.584V770.48z" fill="#00ae72"/><path d="M765.498 150.113c-2.674-22.22 17.374-43.48 39.663-42.314 21.877-.343 40.988 20.757 38.336 42.52-.411 13.03-9.007 23.775-19.477 30.679.092 127.699-.022 255.42.07 383.119.456 5.258-1.19 10.607-5.785 13.602-10.63.389-21.74 1.715-31.912-2.263-.938-3.726-1.372-7.544-1.44-11.385-.07-127.721.068-255.489-.07-383.233-10.583-6.767-19.042-17.74-19.385-30.725zM874.381 185.204c44.898-22.792 94.367-41.217 145.505-37.742 35.16 1.531 68.284 14.653 100.06 28.712 10.424 4.527 20.528 10.402 31.98 11.796 20.37 2.515 40.623-3.429 59.392-10.858 20.208-7.887 37.97-20.826 58.133-28.782 12.527-5.326 26.358 7.361 24.872 20.186 0 77.04.091 154.103-.046 231.143.663 7.475-4.115 13.762-9.99 17.74-35.319 18.63-72.832 36.256-113.363 38.29-28.164 1.67-54.98-9.6-79.28-22.654-31.204-16.323-67.368-24.027-102.344-17.946-40.692 6.287-78.8 23.067-114.964 42.11-6.195 3.726-13.58 3.451-20.346 1.714-5.395-4.64-10.561-10.767-10.195-18.334-.252-73.908.068-147.839-.138-221.747-.114-6.31.32-13.328 5.167-18.014 7.178-7.11 16.802-10.882 25.557-15.614z" fill="#00ae72" fill-rule="nonzero"/><path d="M216.008 733.216c37.262-.046 74.525-.023 111.787-.023.045 12.756.045 25.535-.046 38.292-6.607-.069-13.213-.069-19.843-.115 0-3.726.023-7.43.023-11.133v-7.315c-16.322-.023-32.621-.023-48.944 0v53.425h8.893c3.84-.023 7.704 0 11.544 0 11.842 0 23.66-.092 35.502.137-.114 6.24-.16 12.482-.251 18.723-18.563-.092-37.125-.023-55.665-.046-.023 17.351-.023 34.702-.023 52.053 2.95-.022 5.921-.022 8.87 0h13.122c-.023 5.967-.023 11.934 0 17.9h-64.969c.023-5.966.023-11.933 0-17.877 6.698-.023 13.42-.023 20.117-.023 0-42.109.023-84.218 0-126.327-6.698-.023-13.396-.023-20.094-.023 0-5.898 0-11.773-.023-17.648zM824.226 733.285c8.664-.115 17.328-.137 25.992-.046 17.054 48.007 34.29 95.945 51.367 143.975h15.568v17.9c-18.654 0-37.308-.068-55.939.046-.046-5.99-.069-11.956-.091-17.923 5.715-.023 11.43-.023 17.168-.023-2.126-6.15-4.252-12.299-6.356-18.425a2275.85 2275.85 0 0 1-3.932-11.499c-.548-1.623-1.645-4.892-2.194-6.515a4793.04 4793.04 0 0 0-57.333 0c-4.092 12.162-8.299 24.278-12.482 36.417 3.726 0 7.475.022 11.224.045 1.555 0 4.64.023 6.195.023-.023 1.76-.023 5.28-.045 7.041-.023 3.59-.023 7.178-.023 10.79-18.677.023-37.33 0-56.008.023v-17.9h15.591c17.054-47.984 34.382-95.877 51.298-143.93m13.008 20.484c-5.464 23.523-15.431 45.675-22.975 68.581 3.818-.023 7.658 0 11.476 0 5.144 0 10.264 0 15.408-.023 6.263.023 12.55.023 18.837.023-2.858-8.161-5.67-16.322-8.664-24.415a877.22 877.22 0 0 0-7.91-22.54c-2.515-7.064-4.526-14.31-6.172-21.626zM648.477 746.978c7.27-.068 14.516-.068 21.786-.091v32.027h27.684c-.046 5.738-.069 11.5-.115 17.237-9.19-.023-18.38-.023-27.57-.023.115 18.677-.228 37.331.115 56.008.046 8.184 3.086 17.192 10.676 21.33 1.234.388 3.726 1.165 4.96 1.554 4.527 1.669 9.419 1.554 14.174 2.08 0 6.081 0 12.162-.023 18.266-11.796.503-24.323 0-34.587-6.584-12.025-6.858-17.191-21.26-17.42-34.474-.251-19.386.023-38.748-.091-58.134-6.493-.046-12.985-.114-19.477-.16.046-5.715.068-11.407.114-17.1h19.843c.023-10.653 0-21.283-.069-31.936zM354.267 799.031c22.083-27.66 67.849-29.924 93.178-5.555 22.106 19.775 24.506 56.809 6.378 79.92-16.277 22.358-47.206 29.33-72.833 21.078l-.617-.251c-15.545-6.653-29.307-18.746-35.319-34.817-7.338-19.866-4.755-43.984 9.213-60.375m24.231 5.51c-20.322 15.934-19.66 51.253 1.418 66.295 1.417.983 4.229 2.972 5.646 3.955v.32c7.796 2.195 15.911 4.435 24.05 2.926 18.15-2.446 32.712-19.202 33.49-37.354 1.028-9.395-1.92-18.517-5.624-26.975l-.64.023c-3.27-3.75-6.676-7.361-10.127-10.928-14.494-9.167-34.748-9.578-48.213 1.738zM549.355 779.509c13.328-4.321 29.216-4.412 41.217 3.52 11.019 7.773 14.06 22.13 14.425 34.817.297 20.14 0 40.28.114 60.443h8.413c3.292-.023 6.607-.023 9.921 0l.092 7.224c0 3.292-.069 6.606-.092 9.921-13.51.115-26.998.046-40.485.069-.64-26.93 1.212-54.02-.983-80.88a81.874 81.874 0 0 0-4.298-11.957c-10.447-8.23-25.923-6.88-36.485.435-11.361 8.024-17.922 21.74-18.448 35.502-.48 13.213-.023 26.427-.137 39.64 2.149.023 6.447.046 8.573.046 3.314.023 6.63.068 9.967.137-.298 5.692-.298 11.385-.298 17.077h-58.499c-.045-5.464-.297-10.905.137-16.345l.252-.915c5.875.046 11.773.046 17.648.069.114-23.272-.046-46.544.114-69.816-.183-3.91.343-8.116-1.554-11.705-5.875-.914-11.819-.709-17.74-.731 0-5.716-.023-11.408-.045-17.1 10.95.297 22.06-1.074 32.872.96 10.31 3.246 7.43 16.002 7.887 24.255 6.058-10.95 15.202-20.826 27.432-24.666zM1128.358 798.163c17.465-23.25 54.842-29.17 77.839-11.019 14.905 12.436 19.5 33.102 17.51 51.688-28.392.045-56.784-.046-85.176.045 1.303 12.094 5.555 24.895 16.162 31.914 1.463.891 4.366 2.72 5.806 3.634 17.466 8.482 38.543 2.835 53.219-8.687 2.926 5.464 5.966 10.882 8.984 16.323-17.762 13.442-41.674 19.294-63.391 13.419-18.426-4.732-33.88-19.34-39.8-37.377-4.595-14.105-4.069-29.536.023-43.664 2.286-5.76 5.235-11.247 8.824-16.276m24.186 3.429c-7.43 5.464-10.721 14.402-13.03 22.975 3.36 0 6.766.023 10.15.045 5.99.023 11.978.023 17.99-.068 11.248.137 22.518.091 33.788.068-.663-4.206-1.326-8.39-2.035-12.55a429.24 429.24 0 0 0-7.27-11.225c-11.52-8.732-28.483-8.504-39.593.755zM1255.438 785.59c18.837-12.277 45.149-11.774 63.94.342 9.28 6.218 6.926 18.472 7.246 28.027-6.286-.022-12.573-.045-18.836-.365-.686-4.481-1.258-8.962-2.378-13.328-10.401-6.858-25.649-8.481-35.662-.16-6.698 6.127-2.834 16.482 4 20.757 3.453 1.738 6.996 3.315 10.608 4.801 13.259 5.098 27.82 8.504 38.656 18.311 11.682 10.928 10.493 31.868-1.531 42.11-10.584 9.052-25.078 11.955-38.68 11.59-13.19-.435-27.089-3.91-37.079-12.894-7.795-6.904-6.195-17.991-6.218-27.272 1.235.045 3.704.114 4.938.16 4.71.091 9.396.091 14.128.114.663 5.395-.503 12.39 4.777 15.888 8.87 6.287 20.597 6.972 31.022 5.075 6.903-1.28 13.51-5.852 14.882-13.122-1.166-4.046-1.898-8.824-5.738-11.247-10.219-6.744-22.335-9.67-33.536-14.334-6.95-3.36-13.968-7.132-19.408-12.71-10.585-11.75-8.71-32.988 4.869-41.743zM1348.273 815.4c8.138-21.855 30.13-37.377 53.356-38.543 23.363-2.31 47.8 9.053 59.802 29.49 7.727 12.939 9.555 28.873 6.698 43.526-3.475 18.357-16.825 33.994-33.445 41.972-13.876 6.584-29.946 7.27-44.76 3.978-1.714-.389-3.406-.755-5.052-1.12-12.756-5.51-24.483-14.151-31.753-26.153-6.72-10.858-9.19-23.935-8.344-36.554.595-5.623 1.738-11.201 3.498-16.596m33.65-10.768c-20.208 16.026-19.454 51.208 1.577 66.25 1.395.96 4.207 2.903 5.601 3.886l.023.343c7.704 2.195 15.728 4.367 23.82 2.972 19.066-2.423 34.016-20.597 33.833-39.64.64-8.847-2.423-17.283-6.286-25.078a559.41 559.41 0 0 0-10.287-10.516c-14.47-9.327-34.84-9.555-48.28 1.783zM1557.695 777.223c10.699-2.15 22.974-1.006 31.616 6.263 5.943 4.755 8.435 12.23 11.11 19.066 6.72-10.79 16.116-20.597 28.598-24.346 13.396-3.841 29.855-2.63 40.074 7.818 8.458 9.03 10.424 21.946 10.63 33.856.114 19.455-.023 38.932.045 58.409 3.11-.023 6.218-.023 9.373 0h8.961c.023 1.783.046 5.35.069 7.132-.046 3.338-.046 6.676-.092 10.013-13.487.115-26.975.046-40.462.069-.572-27.067 1.166-54.271-.915-81.27a115.952 115.952 0 0 0-3.269-11.407c-9.327-9.647-25.786-8.298-35.319.343-8.96 8.344-13.579 20.529-14.539 32.576-.937 14.151-.205 28.37-.388 42.544 2.972 0 5.966-.023 8.984 0 3.017-.023 6.012-.023 9.052-.023.023 2.995.069 6.012.138 9.03-.023 2.72-.046 5.464-.046 8.207-13.442 0-26.884.023-40.303-.046-.457-27.021 1.03-54.156-.8-81.132-.914-4.206-2.24-8.321-3.749-12.322-8.23-7.315-20.894-7.544-30.13-2.011-11.452 7.178-17.579 20.597-19.476 33.605-1.532 14.859-.389 29.855-.663 44.783 2.103 0 6.332-.023 8.458-.045 3.155-.046 6.355-.16 9.533-.39.182 5.853.251 11.683.32 17.558h-58.591c-.046-5.441-.297-10.882.114-16.277l.252-.983c5.875.046 11.75.046 17.648.092.137-24.004 0-48.007.114-72.011-.206-3.223.206-6.744-1.6-9.579-5.852-.868-11.796-.64-17.671-.685-.023-5.715-.023-11.43-.023-17.123 10.973.366 22.129-1.074 32.987 1.006 10.219 3.2 7.43 15.98 7.361 24.072 6.79-12.733 18.334-23.41 32.599-26.792zM1711.91 814.234c6.08-18.54 22.7-33.125 41.948-36.463 15.637-2.789 33.445-.777 45.56 10.356 14.082 12.573 18.243 32.576 16.368 50.705-28.392.045-56.784-.046-85.177.045 1.28 12.116 5.578 24.918 16.231 31.96 1.44.89 4.344 2.697 5.807 3.611 17.442 8.436 38.496 2.79 53.15-8.71 2.948 5.464 5.966 10.882 8.984 16.323-17.717 13.35-41.492 19.294-63.163 13.465-19.134-4.778-35.045-20.3-40.6-39.183-3.909-13.694-3.52-28.599.892-42.11m32.644-12.595c-7.384 5.463-10.653 14.379-12.985 22.906 3.384.023 6.767.046 10.173.046 5.921.045 11.865.045 17.808-.046 11.316.137 22.632.091 33.948.068-.663-4.183-1.28-8.367-2.012-12.527a414.378 414.378 0 0 0-7.315-11.293c-11.522-8.71-28.484-8.436-39.617.846zM917.244 779.92c17.168.114 34.36.046 51.527.069l.069 17.145c-5.19.046-10.379.069-15.568.092 7.064 26.243 16.322 51.961 21.648 78.64 1.212-5.395 2.31-10.813 3.955-16.094 1.143-3.978 2.355-7.91 3.452-11.888 6.881-22.609 13.556-45.286 20.346-67.918 6.698.023 13.419.023 20.14.068 8.892 32.097 20.208 63.553 27.478 96.06 1.097-5.51 2.171-10.996 3.726-16.39 1.303-4.596 2.674-9.19 4.046-13.786 4.846-16.208 9.533-32.484 14.333-48.715h-15.819c.023-5.761.046-11.522.114-17.283 17.168.137 34.36.023 51.55.069 0 5.715.023 11.407.046 17.122-4.847.046-9.693.115-14.516.183-9.807 33.148-19.774 66.227-29.65 99.352-8.207 0-16.39-.023-24.575.068-4.64-14.31-9.03-28.69-13.579-43.023a3623.061 3623.061 0 0 0-7.064-22.335c-2.537-7.704-4.503-15.568-6.24-23.477-6.996 30.107-18.037 59.117-26.701 88.767-8.253 0-16.505 0-24.735-.046-9.738-33.102-19.911-66.09-29.512-99.237-4.87-.092-9.739-.16-14.585-.229.023-5.738.046-11.476.114-17.214z" fill="#fff" fill-rule="nonzero"/><g><path d="M989.3 415.09c34.976-6.082 71.14 1.622 102.345 17.945 24.3 13.053 51.115 24.323 79.279 22.655 40.53-2.035 78.044-19.66 113.363-38.292l4.367-1.074c-6.561 9.556-18.197 12.779-27.981 17.831-33.193 15.225-69.107 29.239-106.3 26.038-21.397-2.103-41.148-11.499-60.054-21.146-22.951-11.979-48.35-19.888-74.295-21.169-48.898-.823-95.19 18.472-138.007 40.212-6.881 3.132-13.762 8.253-21.695 7.155-4.617-.411-7.498-4.412-10.698-7.2l4.366.868c6.767 1.737 14.15 2.012 20.346-1.715 36.165-19.042 74.272-35.822 114.964-42.109z" fill="#188662" fill-rule="nonzero"/></g><g><path d="M786.393 575.456c10.172 3.978 21.282 2.652 31.912 2.263l4.024-.183c-7.087 8.298-19.294 4.755-28.758 4.595-4.23.457-6.104-3.315-7.178-6.675zM336.824 751.87c3.772-.228 7.567-.457 11.339-.663.274 12.94.366 25.901-.114 38.84-5.99-.068-12.002-.137-17.991-.183-.8-3.314-1.6-6.63-2.4-9.921 3.086-.983 6.126-2.126 9.212-3.086a827.784 827.784 0 0 1-.046-24.987zM864.117 751.642l6.79.183c14.905 41.766 30.312 83.349 44.463 125.39h-7.498c-13.83-42.11-30.93-83.144-43.755-125.573zM268.221 760.374c13.213-.617 26.472-.685 39.708-.137 0 3.704-.023 7.407-.023 11.133-9.418.023-18.837.229-28.232.549a4321.127 4321.127 0 0 0-.252 34.428c-3.84 0-7.703-.023-11.544 0-.046-15.34-.091-30.656.343-45.973zM679.521 765.427c3.727-.138 7.476-.23 11.225-.343l.343 13.83h-11.75c.045-4.503.114-9.007.182-13.487zM825.735 822.35c5.692-15.729 10.721-31.708 17.67-46.956a877.22 877.22 0 0 1 7.91 22.54c-3.817 7.956-7.155 16.117-10.172 24.392-5.144.023-10.264.023-15.408.023zM707.64 797.477c3.634-.069 7.269-.091 10.926-.137-.182 5.852-.342 11.704-.434 17.58-9.03-.16-18.06 0-27.09.342-.776 19.935.778 40.098-.754 59.895-1.074-.046-3.223-.091-4.274-.137-1.235-.389-3.727-1.166-4.961-1.555-3.223-23.432-1.555-47.16-1.189-70.707 8.687-.16 17.397-.092 26.107.137.411-1.349 1.257-4.07 1.668-5.418zM980.704 798.14c2.926.046 5.852.046 8.778.091.023 5.441.138 10.905.298 16.346-5.19.457-10.379.96-15.545 1.508 2.514 10.63 6.766 20.895 8.092 31.8-1.097 3.977-2.309 7.91-3.452 11.887-6.378-18.037-10.904-36.668-16.322-55.003 6.561-.708 14.676.435 18.151-6.63zM1035.889 796.814c9.098-.023 9.944 9.304 12.047 16.071 3.063 11.087 6.4 22.129 10.127 33.033-1.372 4.595-2.743 9.19-4.046 13.785-6.653-20.757-13.9-41.469-18.128-62.889zM1119.488 797.728c2.95.138 5.898.275 8.87.435-3.589 5.03-6.538 10.516-8.824 16.276-2.286 1.92-5.784 3.04-6.607 6.241-7.11 23.09-13.579 46.361-20.71 69.428-2.653 7.932-3.659 16.642-8.116 23.82-7.453 2.47-15.842 1.623-23.523.412-1.898-3.544-2.88-7.453-4.047-11.27 6.127-.686 16.985 3.68 18.288-5.235 9.282-31.114 18.677-62.204 27.936-93.317 4.434-.251 8.87-.457 13.327-.686a523.63 523.63 0 0 1 3.406-6.104zM384.968 813.594c10.859-11.11 27.226-11.75 41.743-10.79 3.451 3.566 6.858 7.178 10.127 10.927-10.928.891-22.655.068-32.622 5.418-11.338 6.744-19.225 19.477-19.34 32.782-.228 7.635.366 15.248.686 22.86-1.417-.983-4.229-2.972-5.646-3.955-9.601-17.694-10.996-42.817 5.052-57.242zM610.872 801.112c4.024 3.772 8.618 7.384 10.447 12.802 6.561 16.185 4.298 33.879 4.55 50.887-.092 6.927 1.394 14.38-2.332 20.712l-.092-7.224c-3.314-.023-6.63-.023-9.921 0 .183-25.741 1.897-51.688-2.652-77.177zM1165.414 805.364c8.116-4.504 17.763-3.864 26.724-4.527a429.24 429.24 0 0 1 7.27 11.225c-11.796.343-23.272 4.046-31.753 12.482-6.013.091-12.002.091-17.991.068 4.229-7.11 8.206-15.088 15.75-19.248zM1282.687 803.97c7.178-2.881 15.11-2.858 22.723-3.704 1.12 4.366 1.692 8.847 2.378 13.328-4.001.228-8.184-.275-12.002 1.097-4.595 2.743-7.841 7.132-11.43 10.973-3.612-1.486-7.155-3.063-10.607-4.8 2.331-5.739 2.263-14.151 8.938-16.895zM1335.928 801.02c5.075 3.91 9.305 8.733 12.345 14.38-1.76 5.395-2.903 10.973-3.498 16.596-5.418-.023-10.813 0-16.208.115a920.502 920.502 0 0 1-1.485-11.088c2.674-.48 5.395-.937 8.115-1.417.16-6.195.389-12.39.731-18.586zM1388.484 813.64c10.676-11.43 27.226-11.66 41.72-10.79a559.41 559.41 0 0 1 10.287 10.515c-9.396.937-18.928 1.28-28.072 3.772-12.345 4.344-21.306 16.185-23.57 28.896-1.188 9.533-.09 19.157.252 28.735a824.762 824.762 0 0 0-5.6-3.886c-9.625-17.763-10.95-42.658 4.983-57.243zM1555.478 809.159c5.486-5.67 13.67-6.058 20.985-7.156 1.509 4 2.835 8.116 3.75 12.322-10.608 1.486-20.392 7.27-25.284 17.031-9.327 13.534-7.361 30.473-9.213 45.904l-1.531.686c-3.178.229-6.378.343-9.533.389.434-15.386-.846-31.045 2.766-46.156 2.286-9.99 10.927-16.436 18.06-23.02zM1631.99 807.901c5.693-5.532 14.151-4.64 21.443-5.075 1.28 3.75 2.378 7.544 3.27 11.408-15.728 1.028-26.93 14.333-30.588 28.781-4.709 14.402.366 29.993-4.754 44.28a599.24 599.24 0 0 1-.138-9.029c-3.04 0-6.035 0-9.052.023.046-13.762-.892-27.616.983-41.286 1.623-11.956 10.195-21.352 18.837-29.102zM1685.483 800.586c15.591 12.025 15.11 33.696 15.271 51.482-.709 11.087 2.012 22.837-2.583 33.353-.023-1.783-.046-5.349-.069-7.132h-8.961c-1.715-25.901 1.532-52.054-3.658-77.703zM1756.327 806.37c8.161-5.533 18.471-4.824 27.844-5.578a414.378 414.378 0 0 1 7.315 11.293c-11.819.503-23.043 4.618-31.936 12.459-5.943.091-11.887.091-17.808.046 4.07-6.607 7.864-13.9 14.585-18.22zM551.23 810.439c6.995-6.835 17.488-6.218 26.45-7.773a81.874 81.874 0 0 1 4.297 11.956c-14.54 2.012-28.804 10.356-34.336 24.507-6.424 12.276-2.583 26.45-6.492 39.297a729.492 729.492 0 0 0-9.967-.137c.228-13.42-.778-26.953 1.348-40.257 1.692-11.545 10.607-20.003 18.7-27.593zM1228.211 807.284c14.928 11.933 17.214 32.553 16.231 50.385-1.234-.046-3.703-.115-4.938-.16-26.518-.915-53.058-.435-79.576-.206.777 5.67.64 11.407.571 17.122a496.484 496.484 0 0 0-5.806-3.634c-3.246-8.139-5.555-16.597-7.11-25.193 28.37-.685 56.762.343 85.132-.388 1.348-12.87-1.738-25.467-4.504-37.926zM1820.176 807.718c14.836 11.43 17.785 31.525 16.116 49.06-28.072.32-56.145.593-84.217.182 1.143 5.784.732 11.659.572 17.488-1.463-.914-4.367-2.72-5.807-3.612a119.148 119.148 0 0 1-7.224-25.33c28.347-.41 56.716.275 85.086-.296 1.463-12.734-1.44-25.238-4.526-37.492zM467.013 810.576c18.974 16.528 24.003 44.44 15.728 67.667l-.252.915c-5.989 11.59-14.31 22.631-26.266 28.575-23.043 13.465-54.613 10.836-74.638-7.018-1.052-1.737-6.836-6.424-1.212-6.492l.617.251c11.019 10.402 27.432 10.973 41.674 9.327 20.46-2.377 38.2-16.825 47.16-35 8.62-18.676 4.733-39.914-2.81-58.225zM1470.483 810.599c13.214 12.002 21.146 30.084 19.637 48.007-.503 6.675-2.263 13.145-3.84 19.637l-.252.983c-9.761 19.866-29.604 35.274-52.075 36.668-19.683 1.35-42.063-4.366-53.562-21.649l4.481.458c1.646.365 3.338.731 5.052 1.12 6.744 9.601 20.026 8.55 30.358 8.504 29.01-.686 56.03-25.215 57.791-54.477 1.943-13.602-3.315-26.632-7.59-39.251zM326.24 824.544c3.086.754 8.801-1.646 9.121 3.109 1.098 5.12 2.492 16.048-5.509 15.522-16.688.892-33.422-.137-50.11.32-.205 11.225-.25 22.472-.228 33.72h-11.659c.092-15.134-.274-30.245.366-45.356 16.71-.411 33.444.526 50.132-.457 4.07.091 5.487-4.412 7.887-6.858zM994.512 902.224c10.287-22.792 13.51-48.282 24.391-70.868 2.378 7.43 4.733 14.882 7.064 22.335-7.04 20.049-12.07 40.783-19.362 60.74-6.653 1.898-13.762 1.486-20.574.823-6.218.206-5.647-7.978-7.659-12.116 5.327-.274 11.088 1.235 16.14-.914zM1267.325 840.592l2.652-.549c11.201 4.664 23.317 7.59 33.536 14.334 3.84 2.423 4.572 7.2 5.738 11.247-15.111-5.555-33.285-10.173-41.926-25.032zM817.414 847.839c16.848-.8 33.719-.298 50.59-.549a2275.85 2275.85 0 0 0 3.931 11.499c-14.333.526-28.666-.046-42.977.64-2.743 8.07-5.532 16.117-8.275 24.21-1.829.16-5.487.48-7.315.662.022-1.76.022-5.28.045-7.04-1.554 0-4.64-.024-6.195-.024 3.384-9.807 6.79-19.614 10.196-29.398zM1340.638 859.863c11.43 7.521 14.173 23.684 8.48 35.594-7.337 12.756-22.06 19.569-36.347 20.46-18.357 1.44-39.16-2.903-51.092-18.037 14.401 4.778 29.672 9.167 44.943 5.555 11.178-2.103 23.066-6.698 29.032-17.076 5.166-7.819 4.046-17.626 4.984-26.496zM1186.857 904.487c17.557-.732 36.44-6.012 47.87-20.277 2.743 5.44 5.554 10.858 8.343 16.276-25.146 19.82-67.049 23.158-89.154-2.857 10.744 3.177 21.511 7.43 32.941 6.858zM1783.622 904.327c15.82-1.737 32.644-6.927 42.84-19.957 2.72 5.463 7.704 10.676 6.972 17.19-25.009 18.975-65.7 21.238-87.508-3.794 12.253 3.52 24.712 8.047 37.696 6.561zM291.493 895.617c3.474 0 6.972.046 10.447.069-.137 5.875-.275 11.773-.366 17.67-21.763.184-43.503.527-65.243-.068V902.43c17.74-.96 35.502-.115 53.241-.732.48-1.509 1.44-4.572 1.92-6.08zM539.983 902.36c7.75.504 12.801-7.337 20.757-6.491.548 5.943.731 11.933.48 17.922-19.34.183-38.702.32-58.042-.16l.137-11.156c12.207-.526 24.438-.045 36.668-.114zM635.127 896.417c3.017.046 6.058.16 9.075.275 0 5.623 0 11.247.046 16.87-13.487.504-26.998.572-40.485 0-.046-3.749-.092-7.498-.115-11.224 10.516-1.097 23.912 3.772 31.479-5.92zM707.16 901.927c2.217-6.218 7.657-7.59 13.67-7.019-.115 6.287-.206 12.574-.275 18.86-15.956 1.303-34.13-2.034-44.12-15.75 10.013 2.651 20.277 5.074 30.724 3.909zM820.409 901.812c1.714-2.217 3.383-4.435 5.12-6.606 3.04.251 6.081.525 9.144.823-.274 5.646-.48 11.338-.685 17.008-18.609 1.029-37.263.411-55.87.411-.16-3.703-.275-7.407-.412-11.087 14.219-.709 28.46-.16 42.703-.549zM927.12 895.549h10.744c-.137 5.966-.228 11.91-.274 17.876-18.357-.525-36.965 1.67-55.162-.937-.868-3.269-1.166-6.675-1.6-10.013 14.813-.8 29.65-.297 44.463-.64.457-1.577 1.372-4.71 1.829-6.286zM1556.3 896.577c2.698-.251 5.441-.48 8.184-.663-.022 5.898.092 11.82.115 17.74-19.249.366-38.497.297-57.745.069-.046-3.795-.091-7.567-.114-11.316 13.83-.663 27.683.48 41.49-.275 3.521-.183 5.35-3.772 8.07-5.555zM1631.58 896.303c3.337.046 6.72.114 10.103.183.046 5.784.115 11.567.229 17.35-13.58.138-27.18.344-40.76-.228 0-3.68-.023-7.338.023-10.996 9.396-.16 18.791-.48 28.21-.548l2.194-5.761zM1701.44 902.04c6.263-.09 10.15-8.115 16.756-5.417.892 5.51.915 11.133.983 16.711a428.56 428.56 0 0 1-40.92.32c.046-3.726.138-7.43.206-11.133 7.658-.16 15.317.137 22.975-.48z" fill="#188662" fill-rule="nonzero"/></g></svg>