<svg viewBox="0 0 2053 1024" xmlns="http://www.w3.org/2000/svg" fill-rule="evenodd" clip-rule="evenodd" stroke-linejoin="round" stroke-miterlimit="1.414"><g transform="matrix(.97794 0 0 1 -8233.293 0)"><path fill="none" d="M8419 0h2099v1024H8419z"/><clipPath id="a"><path d="M8419 0h2099v1024H8419z"/></clipPath><g clip-path="url(#a)"><path d="M10517.96 255.18c0-140.838-116.868-255.18-260.935-255.18H8679.9c-144.01 0-260.935 114.342-260.935 255.18v513.636c0 140.838 116.925 255.18 260.935 255.18h1577.124c144.067 0 260.935-114.342 260.935-255.18V255.179z" fill="#00ae72"/><path d="M9201.76 150.113c-2.734-22.22 17.766-43.48 40.558-42.314 22.37-.343 41.913 20.757 39.201 42.52-.42 13.03-9.21 23.775-19.916 30.679.093 127.699-.023 255.42.07 383.119.468 5.258-1.216 10.607-5.914 13.602-10.87.389-22.23 1.715-32.633-2.263-.958-3.726-1.402-7.544-1.472-11.385-.07-127.721.07-255.489-.07-383.233-10.823-6.767-19.473-17.74-19.823-30.725zM9313.1 185.204c45.91-22.792 96.495-41.217 148.787-37.742 35.952 1.531 69.823 14.653 102.316 28.712 10.659 4.527 20.991 10.402 32.702 11.796 20.828 2.515 41.54-3.429 60.73-10.858 20.665-7.887 38.828-20.826 59.445-28.782 12.81-5.326 26.953 7.361 25.433 20.186 0 77.04.094 154.103-.047 231.143.678 7.475-4.207 13.762-10.215 17.74-36.115 18.63-74.475 36.256-115.92 38.29-28.8 1.67-56.22-9.6-81.068-22.654-31.908-16.323-68.888-24.027-104.653-17.946-41.609 6.287-80.576 23.067-117.557 42.11-6.335 3.726-13.885 3.451-20.804 1.714-5.517-4.64-10.8-10.767-10.426-18.334-.257-73.908.07-147.839-.14-221.747-.117-6.31.327-13.328 5.283-18.014 7.34-7.11 17.18-10.882 26.134-15.614zM8639.877 733.216c38.102-.046 76.205-.023 114.307-.023.047 12.756.047 25.535-.046 38.292-6.756-.069-13.512-.069-20.29-.115 0-3.726.023-7.43.023-11.133v-7.315c-16.69-.023-33.357-.023-50.048 0v53.425h9.093c3.928-.023 7.878 0 11.805 0 12.109 0 24.194-.092 36.303.137-.117 6.24-.164 12.482-.257 18.723-18.981-.092-37.963-.023-56.92-.046-.024 17.351-.024 34.702-.024 52.053 3.016-.022 6.055-.022 9.07 0h13.418c-.024 5.967-.024 11.934 0 17.9h-66.434c.023-5.966.023-11.933 0-17.877 6.849-.023 13.721-.023 20.57-.023 0-42.109.024-84.218 0-126.327-6.849-.023-13.698-.023-20.547-.023 0-5.898 0-11.773-.023-17.648zM9261.813 733.285c8.86-.115 17.72-.137 26.579-.046 17.438 48.007 35.063 95.945 52.525 143.975h15.919v17.9c-19.075 0-38.15-.068-57.2.046-.047-5.99-.07-11.956-.094-17.923 5.844-.023 11.688-.023 17.555-.023-2.174-6.15-4.348-12.299-6.498-18.425-1.356-3.84-2.689-7.658-4.021-11.499-.561-1.623-1.683-4.892-2.244-6.515a5011.697 5011.697 0 0 0-58.627 0c-4.184 12.162-8.485 24.278-12.763 36.417 3.81 0 7.644.022 11.478.045 1.59 0 4.745.023 6.335.023-.024 1.76-.024 5.28-.047 7.041-.024 3.59-.024 7.178-.024 10.79-19.098.023-38.172 0-57.27.023v-17.9h15.942c17.438-47.984 35.157-95.877 52.455-143.93m13.301 20.484c-5.587 23.523-15.779 45.675-23.493 68.581 3.904-.023 7.831 0 11.735 0 5.26 0 10.496 0 15.755-.023 6.405.023 12.834.023 19.262.023-2.922-8.161-5.797-16.322-8.86-24.415a864.316 864.316 0 0 0-8.087-22.54c-2.572-7.064-4.629-14.31-6.312-21.626zM9082.1 746.978c7.434-.068 14.844-.068 22.277-.091v32.027h28.308c-.046 5.738-.07 11.5-.117 17.237-9.397-.023-18.794-.023-28.19-.023.116 18.677-.234 37.331.116 56.008.047 8.184 3.156 17.192 10.917 21.33 1.262.388 3.81 1.165 5.072 1.554 4.629 1.669 9.631 1.554 14.493 2.08 0 6.081 0 12.162-.023 18.266-12.062.503-24.872 0-35.368-6.584-12.295-6.858-17.578-21.26-17.812-34.474-.257-19.386.023-38.748-.094-58.134-6.638-.046-13.277-.114-19.916-.16.047-5.715.07-11.407.117-17.1h20.29c.024-10.653 0-21.283-.07-31.936zM8781.254 799.031c22.58-27.66 69.379-29.924 95.28-5.555 22.604 19.775 25.058 56.809 6.521 79.92-16.643 22.358-48.27 29.33-74.475 21.078l-.631-.251c-15.896-6.653-29.968-18.746-36.116-34.817-7.503-19.866-4.862-43.984 9.42-60.375m24.779 5.51c-20.781 15.934-20.103 51.253 1.45 66.295 1.449.983 4.324 2.972 5.773 3.955v.32c7.971 2.195 16.27 4.435 24.591 2.926 18.56-2.446 33.451-19.202 34.246-37.354 1.052-9.395-1.964-18.517-5.75-26.975l-.655.023c-3.343-3.75-6.826-7.361-10.355-10.928-14.82-9.167-35.532-9.578-49.3 1.738zM8980.743 779.509c13.628-4.321 29.874-4.412 42.146 3.52 11.267 7.773 14.376 22.13 14.75 34.817.304 20.14 0 40.28.117 60.443h8.603c3.366-.023 6.755-.023 10.145 0l.093 7.224c0 3.292-.07 6.606-.093 9.921-13.815.115-27.607.046-41.399.069-.654-26.93 1.239-54.02-1.005-80.88a80.7 80.7 0 0 0-4.395-11.957c-10.682-8.23-26.508-6.88-37.307.435-11.618 8.024-18.327 21.74-18.865 35.502-.49 13.213-.023 26.427-.14 39.64 2.197.023 6.592.046 8.766.046 3.39.023 6.779.068 10.192.137-.304 5.692-.304 11.385-.304 17.077h-59.819c-.047-5.464-.304-10.905.14-16.345l.258-.915c6.007.046 12.038.046 18.046.069.117-23.272-.047-46.544.117-69.816-.187-3.91.35-8.116-1.59-11.705-6.008-.914-12.085-.709-18.14-.731 0-5.716-.023-11.408-.046-17.1 11.197.297 22.557-1.074 33.614.96 10.543 3.246 7.597 16.002 8.065 24.255 6.194-10.95 15.545-20.826 28.05-24.666zM9572.805 798.163c17.859-23.25 56.078-29.17 79.595-11.019 15.24 12.436 19.94 33.102 17.905 51.688-29.032.045-58.065-.046-87.098.045 1.333 12.094 5.68 24.895 16.527 31.914 1.496.891 4.465 2.72 5.937 3.634 17.86 8.482 39.412 2.835 54.42-8.687 2.991 5.464 6.1 10.882 9.186 16.323-18.163 13.442-42.614 19.294-64.821 13.419-18.841-4.732-34.643-19.34-40.697-37.377-4.699-14.105-4.161-29.536.023-43.664 2.337-5.76 5.353-11.247 9.023-16.276m24.732 3.429c-7.598 5.464-10.964 14.402-13.325 22.975 3.437 0 6.92.023 10.38.045 6.124.023 12.248.023 18.396-.068 11.5.137 23.025.091 34.55.068-.679-4.206-1.356-8.39-2.081-12.55a428.29 428.29 0 0 0-7.434-11.225c-11.781-8.732-29.126-8.504-40.486.755zM9702.751 785.59c19.262-12.277 46.167-11.774 65.382.342 9.49 6.218 7.083 18.472 7.41 28.027-6.428-.022-12.856-.045-19.261-.365-.702-4.481-1.286-8.962-2.431-13.328-10.636-6.858-26.228-8.481-36.467-.16-6.849 6.127-2.898 16.482 4.091 20.757 3.53 1.738 7.153 3.315 10.846 4.801 13.558 5.098 28.449 8.504 39.529 18.311 11.945 10.928 10.73 31.868-1.566 42.11-10.823 9.052-25.644 11.955-39.552 11.59-13.488-.435-27.7-3.91-37.916-12.894-7.97-6.904-6.335-17.991-6.358-27.272 1.262.045 3.787.114 5.05.16 4.815.091 9.607.091 14.445.114.678 5.395-.514 12.39 4.886 15.888 9.07 6.287 21.062 6.972 31.721 5.075 7.06-1.28 13.815-5.852 15.218-13.122-1.193-4.046-1.94-8.824-5.868-11.247-10.449-6.744-22.838-9.67-34.292-14.334-7.106-3.36-14.283-7.132-19.846-12.71-10.823-11.75-8.906-32.988 4.979-41.743zM9797.68 815.4c8.322-21.855 30.81-37.377 54.56-38.543 23.89-2.31 48.878 9.053 61.15 29.49 7.901 12.939 9.771 28.873 6.85 43.526-3.554 18.357-17.205 33.994-34.2 41.972-14.188 6.584-30.622 7.27-45.77 3.978-1.752-.389-3.482-.755-5.165-1.12-13.044-5.51-25.036-14.151-32.47-26.153-6.872-10.858-9.396-23.935-8.531-36.554.607-5.623 1.776-11.201 3.576-16.596m34.41-10.768c-20.665 16.026-19.893 51.208 1.612 66.25a844.11 844.11 0 0 1 5.727 3.886l.024.343c7.877 2.195 16.082 4.367 24.357 2.972 19.496-2.423 34.783-20.597 34.596-39.64.655-8.847-2.477-17.283-6.428-25.078a565.479 565.479 0 0 0-10.519-10.516c-14.797-9.327-35.625-9.555-49.37 1.783zM10011.826 777.223c10.94-2.15 23.493-1.006 32.329 6.263 6.077 4.755 8.625 12.23 11.36 19.066 6.873-10.79 16.48-20.597 29.243-24.346 13.699-3.841 30.53-2.63 40.978 7.818 8.65 9.03 10.66 21.946 10.87 33.856.117 19.455-.024 38.932.047 58.409 3.179-.023 6.358-.023 9.584 0h9.163c.023 1.783.047 5.35.07 7.132-.047 3.338-.047 6.676-.093 10.013-13.792.115-27.584.046-41.376.069-.584-27.067 1.193-54.271-.935-81.27a113.986 113.986 0 0 0-3.342-11.407c-9.538-9.647-26.368-8.298-36.116.343-9.163 8.344-13.885 20.529-14.867 32.576-.958 14.151-.21 28.37-.397 42.544 3.039 0 6.1-.023 9.186 0 3.086-.023 6.148-.023 9.257-.023.024 2.995.07 6.012.14 9.03-.023 2.72-.046 5.464-.046 8.207-13.745 0-27.49.023-41.212-.046-.467-27.021 1.052-54.156-.818-81.132-.935-4.206-2.29-8.321-3.834-12.322-8.415-7.315-21.365-7.544-30.809-2.011-11.711 7.178-17.976 20.597-19.916 33.605-1.566 14.859-.398 29.855-.678 44.783 2.15 0 6.475-.023 8.649-.045a174.52 174.52 0 0 0 9.748-.39c.187 5.853.257 11.683.327 17.558h-59.912c-.047-5.441-.304-10.882.117-16.277l.257-.983c6.007.046 12.015.046 18.046.092.14-24.004 0-48.007.117-72.011-.21-3.223.21-6.744-1.636-9.579-5.985-.868-12.062-.64-18.07-.685-.023-5.715-.023-11.43-.023-17.123 11.22.366 22.627-1.074 33.73 1.006 10.45 3.2 7.598 15.98 7.528 24.072 6.943-12.733 18.747-23.41 33.334-26.792zM10169.519 814.234c6.218-18.54 23.212-33.125 42.895-36.463 15.989-2.789 34.198-.777 46.588 10.356 14.399 12.573 18.653 32.576 16.737 50.705-29.033.045-58.066-.046-87.099.045 1.31 12.116 5.704 24.918 16.597 31.96 1.473.89 4.442 2.697 5.938 3.611 17.835 8.436 39.365 2.79 54.348-8.71 3.016 5.464 6.101 10.882 9.187 16.323-18.116 13.35-42.427 19.294-64.587 13.465-19.566-4.778-35.835-20.3-41.516-39.183-3.997-13.694-3.6-28.599.912-42.11m33.38-12.595c-7.55 5.463-10.892 14.379-13.277 22.906 3.46.023 6.92.046 10.402.046a806.22 806.22 0 0 0 18.21-.046c11.571.137 23.142.091 34.713.068-.678-4.183-1.309-8.367-2.057-12.527a413.462 413.462 0 0 0-7.48-11.293c-11.782-8.71-29.126-8.436-40.51.846zM9356.93 779.92c17.555.114 35.133.046 52.688.069l.07 17.145c-5.306.046-10.612.069-15.918.092 7.223 26.243 16.69 51.961 22.137 78.64 1.238-5.395 2.36-10.813 4.044-16.094 1.168-3.978 2.407-7.91 3.53-11.888 7.035-22.609 13.861-45.286 20.804-67.918 6.849.023 13.721.023 20.594.068 9.093 32.097 20.664 63.553 28.098 96.06 1.122-5.51 2.22-10.996 3.81-16.39 1.332-4.596 2.735-9.19 4.137-13.786 4.956-16.208 9.748-32.484 14.657-48.715h-16.176c.023-5.761.047-11.522.117-17.283 17.555.137 35.134.023 52.712.069 0 5.715.024 11.407.047 17.122-4.956.046-9.911.115-14.844.183-10.028 33.148-20.22 66.227-30.318 99.352-8.392 0-16.76-.023-25.129.068-4.745-14.31-9.233-28.69-13.885-43.023a3565.214 3565.214 0 0 0-7.223-22.335c-2.595-7.704-4.605-15.568-6.382-23.477-7.153 30.107-18.443 59.117-27.303 88.767-8.439 0-16.877 0-25.293-.046-9.958-33.102-20.36-66.09-30.178-99.237-4.979-.092-9.958-.16-14.913-.229.023-5.738.046-11.476.116-17.214z" fill="#fff" fill-rule="nonzero"/><path d="M9430.61 415.09c35.765-6.082 72.745 1.622 104.653 17.945 24.849 13.053 52.269 24.323 81.068 22.655 41.445-2.035 79.805-19.66 115.92-38.292l4.465-1.074c-6.709 9.556-18.607 12.779-28.612 17.831-33.942 15.225-70.665 29.239-108.697 26.038-21.88-2.103-42.077-11.499-61.409-21.146-23.469-11.979-49.44-19.888-75.971-21.169-50-.823-97.337 18.472-141.12 40.212-7.036 3.132-14.072 8.253-22.183 7.155-4.722-.411-7.668-4.412-10.94-7.2l4.465.868c6.919 1.737 14.47 2.012 20.804-1.715 36.98-19.042 75.948-35.822 117.557-42.109zM9223.126 575.456c10.403 3.978 21.763 2.652 32.633 2.263l4.114-.183c-7.246 8.298-19.73 4.755-29.407 4.595-4.324.457-6.241-3.315-7.34-6.675zM8763.418 751.87c3.857-.228 7.737-.457 11.594-.663.28 12.94.374 25.901-.117 38.84-6.124-.068-12.272-.137-18.396-.183-.819-3.314-1.637-6.63-2.455-9.921 3.156-.983 6.265-2.126 9.42-3.086a809.527 809.527 0 0 1-.046-24.987zM9302.604 751.642l6.943.183c15.24 41.766 30.996 83.349 45.466 125.39h-7.668c-14.142-42.11-31.627-83.144-44.74-125.573zM8693.267 760.374c13.511-.617 27.07-.685 40.604-.137 0 3.704-.024 7.407-.024 11.133-9.63.023-19.261.229-28.869.549-.14 11.476-.21 22.952-.257 34.428-3.927 0-7.877-.023-11.805 0-.046-15.34-.093-30.656.351-45.973zM9113.844 765.427c3.81-.138 7.644-.23 11.478-.343l.35 13.83h-12.015c.047-4.503.117-9.007.187-13.487zM9263.356 822.35c5.82-15.729 10.963-31.708 18.07-46.956a864.316 864.316 0 0 1 8.088 22.54c-3.904 7.956-7.317 16.117-10.403 24.392-5.26.023-10.495.023-15.755.023zM9142.597 797.477c3.716-.069 7.433-.091 11.173-.137-.187 5.852-.35 11.704-.444 17.58-9.233-.16-18.467 0-27.7.342-.795 19.935.795 40.098-.772 59.895-1.098-.046-3.296-.091-4.37-.137-1.263-.389-3.811-1.166-5.073-1.555-3.296-23.432-1.59-47.16-1.216-70.707 8.883-.16 17.79-.092 26.695.137.421-1.349 1.286-4.07 1.707-5.418zM9421.82 798.14c2.993.046 5.985.046 8.977.091.023 5.441.14 10.905.304 16.346-5.306.457-10.613.96-15.896 1.508 2.572 10.63 6.92 20.895 8.275 31.8-1.122 3.977-2.36 7.91-3.53 11.887-6.521-18.037-11.15-36.668-16.69-55.003 6.71-.708 15.008.435 18.56-6.63zM9478.25 796.814c9.303-.023 10.168 9.304 12.319 16.071 3.132 11.087 6.545 22.129 10.355 33.033-1.402 4.595-2.805 9.19-4.137 13.785-6.803-20.757-14.213-41.469-18.537-62.889zM9563.735 797.728c3.016.138 6.031.275 9.07.435-3.67 5.03-6.686 10.516-9.023 16.276-2.338 1.92-5.914 3.04-6.756 6.241-7.27 23.09-13.885 46.361-21.178 69.428-2.712 7.932-3.74 16.642-8.299 23.82-7.62 2.47-16.199 1.623-24.053.412-1.94-3.544-2.946-7.453-4.138-11.27 6.265-.686 17.368 3.68 18.7-5.235 9.491-31.114 19.099-62.204 28.566-93.317 4.535-.251 9.07-.457 13.628-.686a520.424 520.424 0 0 1 3.483-6.104zM8812.647 813.594c11.104-11.11 27.84-11.75 42.685-10.79 3.53 3.566 7.012 7.178 10.355 10.927-11.174.891-23.165.068-33.357 5.418-11.595 6.744-19.66 19.477-19.776 32.782-.234 7.635.374 15.248.701 22.86-1.45-.983-4.324-2.972-5.774-3.955-9.818-17.694-11.244-42.817 5.166-57.242zM9043.647 801.112c4.114 3.772 8.813 7.384 10.683 12.802 6.709 16.185 4.394 33.879 4.651 50.887-.093 6.927 1.426 14.38-2.384 20.712l-.093-7.224c-3.39-.023-6.78-.023-10.145 0 .187-25.741 1.94-51.688-2.712-77.177zM9610.697 805.364c8.299-4.504 18.163-3.864 27.326-4.527a428.29 428.29 0 0 1 7.434 11.225c-12.062.343-23.797 4.046-32.47 12.482-6.147.091-12.271.091-18.396.068 4.325-7.11 8.392-15.088 16.106-19.248zM9730.615 803.97c7.34-2.881 15.451-2.858 23.236-3.704 1.145 4.366 1.73 8.847 2.43 13.328-4.09.228-8.368-.275-12.272 1.097-4.698 2.743-8.018 7.132-11.688 10.973-3.693-1.486-7.316-3.063-10.846-4.8 2.384-5.739 2.314-14.151 9.14-16.895zM9785.057 801.02c5.19 3.91 9.514 8.733 12.623 14.38-1.8 5.395-2.969 10.973-3.576 16.596-5.54-.023-11.057 0-16.574.115a901.285 901.285 0 0 1-1.52-11.088c2.736-.48 5.517-.937 8.3-1.417.163-6.195.397-12.39.747-18.586zM9838.798 813.64c10.917-11.43 27.84-11.66 42.661-10.79a565.479 565.479 0 0 1 10.52 10.515c-9.608.937-19.356 1.28-28.706 3.772-12.623 4.344-21.787 16.185-24.1 28.896-1.216 9.533-.094 19.157.256 28.735a844.11 844.11 0 0 0-5.727-3.886c-9.841-17.763-11.197-42.658 5.096-57.243zM10009.558 809.159c5.61-5.67 13.98-6.058 21.46-7.156 1.542 4 2.898 8.116 3.833 12.322-10.846 1.486-20.851 7.27-25.854 17.031-9.537 13.534-7.527 30.473-9.42 45.904l-1.566.686c-3.25.229-6.522.343-9.748.389.444-15.386-.865-31.045 2.829-46.156 2.337-9.99 11.173-16.436 18.466-23.02zM10087.797 807.901c5.82-5.532 14.47-4.64 21.927-5.075a113.986 113.986 0 0 1 3.342 11.408c-16.082 1.028-27.536 14.333-31.276 28.781-4.816 14.402.374 29.993-4.863 44.28-.07-3.017-.116-6.034-.14-9.029-3.109 0-6.171 0-9.257.023.047-13.762-.911-27.616 1.006-41.286 1.66-11.956 10.425-21.352 19.261-29.102zM10142.497 800.586c15.942 12.025 15.451 33.696 15.615 51.482-.725 11.087 2.057 22.837-2.642 33.353-.023-1.783-.047-5.349-.07-7.132h-9.163c-1.753-25.901 1.566-52.054-3.74-77.703zM10214.938 806.37c8.345-5.533 18.888-4.824 28.472-5.578a413.462 413.462 0 0 1 7.48 11.293c-12.085.503-23.563 4.618-32.656 12.459a806.22 806.22 0 0 1-18.21.046c4.161-6.607 8.042-13.9 14.914-18.22zM8982.66 810.439c7.152-6.835 17.882-6.218 27.045-7.773a80.7 80.7 0 0 1 4.395 11.956c-14.867 2.012-29.454 10.356-35.11 24.507-6.57 12.276-2.642 26.45-6.64 39.297a762.762 762.762 0 0 0-10.191-.137c.234-13.42-.795-26.953 1.38-40.257 1.729-11.545 10.845-20.003 19.12-27.593zM9674.91 807.284c15.265 11.933 17.602 32.553 16.597 50.385-1.262-.046-3.787-.115-5.049-.16-27.116-.915-54.255-.435-81.371-.206.795 5.67.654 11.407.584 17.122a509.597 509.597 0 0 0-5.937-3.634c-3.32-8.139-5.68-16.597-7.27-25.193 29.01-.685 58.042.343 87.051-.388 1.38-12.87-1.776-25.467-4.605-37.926zM10280.227 807.718c15.17 11.43 18.186 31.525 16.48 49.06-28.706.32-57.411.593-86.117.182 1.17 5.784.748 11.659.585 17.488a2181.05 2181.05 0 0 0-5.938-3.612 117.134 117.134 0 0 1-7.387-25.33c28.986-.41 57.996.275 87.005-.296 1.496-12.734-1.472-25.238-4.628-37.492zM8896.543 810.576c19.402 16.528 24.545 44.44 16.083 67.667l-.258.915c-6.124 11.59-14.633 22.631-26.858 28.575-23.563 13.465-55.845 10.836-76.322-7.018-1.076-1.737-6.99-6.424-1.24-6.492l.632.251c11.267 10.402 28.05 10.973 42.614 9.327 20.921-2.377 39.061-16.825 48.224-35 8.813-18.676 4.84-39.914-2.875-58.225zM9922.647 810.599c13.511 12.002 21.623 30.084 20.08 48.007-.514 6.675-2.314 13.145-3.927 19.637l-.257.983c-9.982 19.866-30.272 35.274-53.25 36.668-20.127 1.35-43.012-4.366-54.77-21.649l4.582.458c1.683.365 3.413.731 5.166 1.12 6.896 9.601 20.477 8.55 31.043 8.504 29.664-.686 57.294-25.215 59.094-54.477 1.987-13.602-3.39-26.632-7.76-39.251zM8752.595 824.544c3.156.754 9-1.646 9.327 3.109 1.122 5.12 2.548 16.048-5.634 15.522-17.064.892-34.175-.137-51.24.32-.21 11.225-.257 22.472-.233 33.72h-11.922c.094-15.134-.28-30.245.374-45.356 17.088-.411 34.199.526 51.263-.457 4.161.091 5.61-4.412 8.065-6.858zM9435.94 902.224c10.519-22.792 13.815-48.282 24.942-70.868 2.43 7.43 4.838 14.882 7.223 22.335-7.2 20.049-12.343 40.783-19.8 60.74-6.802 1.898-14.072 1.486-21.038.823-6.358.206-5.774-7.978-7.83-12.116 5.446-.274 11.337 1.235 16.503-.914zM9714.906 840.592l2.712-.549c11.454 4.664 23.843 7.59 34.292 14.334 3.927 2.423 4.675 7.2 5.868 11.247-15.452-5.555-34.036-10.173-42.872-25.032zM9254.847 847.839c17.228-.8 34.48-.298 51.731-.549 1.332 3.84 2.665 7.658 4.02 11.499-14.656.526-29.313-.046-43.946.64-2.805 8.07-5.657 16.117-8.462 24.21-1.87.16-5.61.48-7.48.662.023-1.76.023-5.28.047-7.04-1.59 0-4.746-.024-6.335-.024 3.46-9.807 6.942-19.614 10.425-29.398zM9789.873 859.863c11.688 7.521 14.493 23.684 8.672 35.594-7.504 12.756-22.558 19.569-37.167 20.46-18.771 1.44-40.043-2.903-52.245-18.037 14.726 4.778 30.341 9.167 45.956 5.555 11.431-2.103 23.587-6.698 29.688-17.076 5.283-7.819 4.137-17.626 5.096-26.496zM9632.624 904.487c17.952-.732 37.26-6.012 48.949-20.277 2.805 5.44 5.68 10.858 8.532 16.276-25.714 19.82-68.562 23.158-91.166-2.857 10.987 3.177 21.997 7.43 33.685 6.858zM10242.849 904.327c16.176-1.737 33.38-6.927 43.806-19.957 2.782 5.463 7.878 10.676 7.13 17.19-25.573 18.975-67.182 21.238-89.483-3.794 12.53 3.52 25.27 8.047 38.547 6.561zM8717.064 895.617c3.553 0 7.13.046 10.682.069-.14 5.875-.28 11.773-.374 17.67-22.253.184-44.484.527-66.714-.068V902.43c18.14-.96 36.302-.115 54.442-.732.491-1.509 1.473-4.572 1.964-6.08zM8971.159 902.36c7.924.504 13.09-7.337 21.225-6.491.56 5.943.748 11.933.49 17.922-19.775.183-39.575.32-59.35-.16l.14-11.156c12.482-.526 24.989-.045 37.495-.114zM9068.449 896.417c3.085.046 6.194.16 9.28.275 0 5.623 0 11.247.047 16.87-13.792.504-27.607.572-41.399 0-.047-3.749-.093-7.498-.117-11.224 10.753-1.097 24.451 3.772 32.189-5.92zM9142.106 901.927c2.267-6.218 7.83-7.59 13.979-7.019-.117 6.287-.21 12.574-.281 18.86-16.316 1.303-34.9-2.034-45.115-15.75 10.238 2.651 20.734 5.074 31.417 3.909zM9257.91 901.812c1.753-2.217 3.46-4.435 5.236-6.606 3.109.251 6.218.525 9.35.823-.28 5.646-.49 11.338-.701 17.008-19.028 1.029-38.103.411-57.13.411-.164-3.703-.281-7.407-.421-11.087 14.54-.709 29.102-.16 43.666-.549zM9367.028 895.549h10.986c-.14 5.966-.233 11.91-.28 17.876-18.77-.525-37.799 1.67-56.406-.937-.888-3.269-1.192-6.675-1.636-10.013 15.147-.8 30.318-.297 45.466-.64.467-1.577 1.402-4.71 1.87-6.286zM10010.4 896.577c2.758-.251 5.563-.48 8.368-.663-.023 5.898.094 11.82.117 17.74-19.682.366-39.365.297-59.047.069-.047-3.795-.093-7.567-.117-11.316 14.143-.663 28.308.48 42.427-.275 3.6-.183 5.47-3.772 8.252-5.555zM10087.376 896.303c3.413.046 6.873.114 10.333.183.046 5.784.116 11.567.233 17.35-13.885.138-27.794.344-41.679-.228 0-3.68-.023-7.338.024-10.996 9.607-.16 19.215-.48 28.845-.548l2.244-5.761zM10158.813 902.04c6.405-.09 10.379-8.115 17.134-5.417.912 5.51.935 11.133 1.005 16.711a448.098 448.098 0 0 1-41.842.32c.047-3.726.14-7.43.21-11.133 7.831-.16 15.662.137 23.493-.48z" fill="#188662" fill-rule="nonzero"/></g></g></svg>