<svg viewBox="0 0 2448 1023" xmlns="http://www.w3.org/2000/svg" fill-rule="evenodd" clip-rule="evenodd" stroke-linejoin="round" stroke-miterlimit="1.414"><g transform="matrix(8.04247 0 0 1 -107799.8 -1.62)"><path fill="none" d="M13403.8 1.623h304.285v1022.38H13403.8z"/><clipPath id="a"><path d="M13403.8 1.623h304.285v1022.38H13403.8z"/></clipPath><g clip-path="url(#a)"><path d="M13623.98 1.623h4.974c1.691 24.003 2.808 51.474 5.582 69.344 1.349 8.267.642 23.38.83 34.76 4.775 82.946 9.595 165.714 14.348 248.75l.707 11.023c6.854-45.607 13.376-94.147 20.23-139.754 3.14-22.137 7.008-40.362 8.633-73.078.31-2.223.94-6.579 1.26-8.801.653-.8 1.968-2.49 2.62-3.29 2.034-10.046 3.858-22.581 5.704-34.76 2.985-12.803 6.091 2.31 8.711 13.69 3.759 18.136 8.059 36.006 9.75 70.855-2.178-2.222-4.333-4.8-6.478-7.556-.398-6.579-1.603-13.425-.95-21.337.817.8 2.719 12.535 3.05 3.023-1.835-20.448-5.018-29.427-7.892-36.45.442 6.579.917 13.157 1.404 19.558-2.61 11.913-4.51-19.114-7.108-10.312-1.382 6.045-3.549 22.848-1.758 34.583 2.852 16.802 5.582 36.183 8.976 45.785 1.559 22.492 4.101-.178 6.279-.712-.763 15.114-1.625 30.227-2.598 44.54-1.348 19.915-4.731 12.358-6.544 27.205-2.42 19.025-5.67 31.115-7.605 53.874-1.404 26.671-1.99 56.364-1.448 85.169.585 17.514 3.062 23.114 4.797 31.56 6.633 12.802 12.624 44.718 16.858 87.57 2.067 22.136 1.88 51.207 1.614 77.344-.144 21.07-2.631 32.805-4.367 45.696-3.194 14.047-2.21 49.519-4.841 67.744-4.046 39.028-11.287 32.982-16.77 22.67-3.35-5.245-2.807-35.028-3.05-55.564-.51-13.425-2.775-8.357-4.058-12.624-5.593-13.602-11.551-25.426-16.017-57.61-.641-5.867-2.52-15.913-2.73-1.51-.973 71.388-3.34 141.177-3.814 212.92-.144 18.848-1.625 34.94-1.791 53.787-.332 35.916-.509 73.344-2.333 106.771-1.381 13.247-3.957 10.224-5.792 17.514h-3.969c-6.522-13.157-13.961-23.648-18.715-65.165-.707-32.272 3.46-63.388 1.106-95.837a869.94 869.94 0 0 1 .398-21.87c.276 2.578.829 7.823 1.105 10.49 4.776-112.728 6.843-232.213 11.198-346.008.465-11.201 1.57-23.825.62-35.472-6.025-105.971-12.061-211.854-17.909-318.537-.796-22.492-5.228-18.403-5.593-44.007.022-24.181 1.824-48.718.01-71.922 3.737-26.137 8.977-21.247 13.366-34.05m-9.198 37.429l2.874 2.4c-.862 2.667-1.68 6.045-2.465 9.957l-2.697 6.045c.575 4.712 1.725 14.225 2.31 18.937 3.383-1.423 6.777-4.09 10.137-7.735l.343-7.734c.973 1.778 2.93 5.423 3.902 7.2-.365-7.112-1.094-21.514-1.459-28.626-1.979-1.422-3.957-.089-5.936.8l.088-11.913c2.156 14.758 2.078-23.559.044-7.023-2.387 4.712-5.284 2.578-7.14 17.692m13.231 66.499c-1.713 3.022-3.415 6.134-5.118 9.245 3.051 39.562 5.826 80.546 7.893 124.108-.464 5.779-.94 11.469-1.415 17.158-.398-50.585-4.311-92.458-6.798-137.354-1.67 2.4-3.339 4.89-4.997 7.468 1.227 23.292 2.322 48.718 5.019 64.01 3.029 18.225 5.24 49.43 3.47 79.567 1.294 24.182 2.676 48.185 4.18 71.567 0-28.005-.111-56.098-.31-84.013l1.857 3.2c-1.238 64.01.508 128.909 4.41 185.095.498-1.6 1.515-4.8 2.012-6.4-.099 18.758-.243 37.694-.806 56.008-4.82 154.779-11.52 305.113-16.87 458.647 6.821 45.074 16.151 58.054 24.707 46.23l.442-18.848c2.056-73.789 2.885-149.534 4.853-223.5 1.315-84.28 4.024-166.604 5.538-250.438 1.88-14.314 3.902-27.827 5.34-45.43 4.532-34.227 9.362-65.698 13.895-99.926 2.653.356 4.488-16.091 6.433-28.093 3.604-24.004 7.44-45.607 11.132-68.9a487.31 487.31 0 0 1-2.045-6.934c-2.963-22.848-6.047-44.629-8.987-67.655-12.282 72.456-23.667 155.046-36.513 221.012 1.338-15.47 2.808-30.138 3.958-46.674l-2.2 7.023c.332-1.6 1.006-4.89 1.338-6.49-5.793-88.546-11.43-177.715-17.123-266.707-1.106 2.4-2.2 4.712-3.295 7.024m-5.096 104.015c-.552 10.935.476 32.094 2.156 30.405.597-10.49-.652-31.65-2.156-30.405m35.22 299.424c.044 26.315-1.57 57.786 1.138 79.034 5.604 49.963 13.962 71.033 21.6 93.347 1.04-14.668 2.21-28.804 3.526-42.05 3.25 8.268 6.544 20.358 10.038 17.513 2.83-3.022 4.4-23.825 5.925-40.717.552 11.913 1.105 23.826 1.669 35.739 2.531-14.402 4.212-41.25 2.863-65.699-1.957-33.605-5.97-56.186-9.96-72.9-4.178-18.047-9.496-17.692-13.022-45.43-2.819-22.491-2.763-56.719-2.178-86.057-7.35 40.718-14.182 87.214-21.6 127.22m41.664 132.82c-2.476 50.763-10.303 40.984-15.144 20.625l-2.255 17.07c.386 6.578.773 13.246 1.16 19.914-3.117-5.246-3.062 19.47-3.46 36.716 6.544 15.025 15.189 12.536 18.682-42.584l-2.487-3.467c1.116-8.535 2.244-16.98 3.371-25.426.034-7.646.078-15.291.133-22.848z" fill="#3e3e29" fill-rule="nonzero"/><path d="M13623.438 44.207l.199-.089.088.978a10.597 10.597 0 0 1-.287-.89zM13567.58 323.36c3.77-6.756 7.44-16.269 11.199-23.292.375 1.334 1.127 3.912 1.492 5.245.287 133.265.022 266.619.121 399.972 1.935 5.957 3.88 11.735 5.837 17.158-.088 5.868-.254 17.78-.343 23.648-6.09.178-12.181-.089-18.261.178.022-5.867.055-17.78.077-23.737 1.813-5.156 3.736-9.068 5.361-17.691.387-98.149-.01-196.386.177-294.623-.11-18.67.32-39.561-1.05-56.008-1.315-7.024-2.962-8.18-4.455-11.824-.033-4.801-.11-14.314-.154-19.026zM13405.17 333.229c7.363-1.423 14.725.266 22.098-.712-.077 6.135-.22 18.403-.287 24.537-2.52 4.979-5.019 10.847-7.473 17.425.066 46.852.044 93.703.044 140.555 7.871-.533 15.73 1.245 23.59-1.245-.155-46.673-.121-93.436-.088-140.199a368.52 368.52 0 0 0-7.738-16.358l.398-24.537c7.77.8 15.542-1.511 23.302 1.6-1.028 31.383-5.494 30.316-8.567 40.718.133 109.616.022 219.233.055 328.85a299.332 299.332 0 0 0 7.904 17.247c-.088 6.312-.243 18.847-.32 25.07-7.827-.978-15.675 2.223-23.49-2.222.983-31.56 5.372-29.96 8.434-39.295.022-50.586.022-101.26 0-151.845-7.838.088-15.675-.267-23.513.266.044 50.319.055 100.638-.01 150.957 2.575 6.134 5.173 11.735 7.781 16.802-.088 6.401-.254 19.203-.342 25.515-7.716-1.333-15.443 2.312-23.137-2.578.652-32.36 5.229-29.605 8.213-39.028.144-110.15.023-220.39.067-330.54-2.764-6.845-5.527-13.246-8.291-19.914v-6.134l1.37-14.935zM13468.954 444.357c5.019-16.625 10.91-18.048 15.996-2.134 3.791 11.557 6.444 42.14 6.378 74.945.188 62.498.066 125.085.022 187.584a714.606 714.606 0 0 0 5.55 17.425c-.045 6.045-.155 18.136-.2 24.181-3.88-.178-7.76-.178-11.629-.533-.155-6.401-.464-19.203-.608-25.604-4.709 29.16-11.308 40.806-16.88 21.514-6.334-24.448-6.157-104.905-.796-136.465 4.875-29.605 11.353-27.738 17.157-30.76-.045-26.226.232-52.63-.221-78.679-1.04-42.673-8.833-46.94-12.127-20.003-1.824 15.825 1.16 29.605 1.912 43.207-.696 35.383-7.937 34.85-9.352 3.378-1.348-31.027 1.15-65.966 4.798-78.056m5.594 170.426c-4.61 15.38-5.616 70.766-2.267 98.503 4.057 22.404 8.545-6.223 11.674-26.76-.011-27.826-.011-55.563-.033-83.39-3.129 2.845-6.434 1.512-9.374 11.647zM13513.702 464.182c3.283-15.291 6.61-36.45 10.645-32.805 3.88-.622 7.395 15.558 9.805 39.206 3.57-26.049 8.291-46.585 13.265-37.695 4.997 3.379 9.275 36.361 9.607 77.079.364 64.81.066 129.797.121 194.696 1.913 6.4 3.825 12.535 5.77 18.403-.077 5.778-.22 17.336-.287 23.114-6.09 0-12.193-.266-18.284.267.045-5.779.11-17.247.155-23.026 1.835-5.867 3.67-11.824 5.494-18.047-.022-56.72.044-113.44 0-170.16-.055-23.647-.365-52.54-3.217-65.698-4.222-13.78-8.821 9.424-10.69 39.917-.486 65.255-.01 130.776-.21 196.119a512.162 512.162 0 0 0 5.506 16.269c-.078 6.134-.221 18.492-.299 24.626-6.124-.8-12.248.622-18.372-1.156.144-7.379.299-14.758.442-22.048a393.723 393.723 0 0 0 5.362-18.758c-.188-59.565 0-119.13-.078-178.694-.033-21.247-.608-48.54-3.438-56.72-4.355-13.246-9.352 14.314-10.545 47.919-.321 62.498.022 125.263-.144 187.85 1.88 6.224 3.77 12.27 5.682 17.959-.056 5.867-.155 17.692-.21 23.648-6.19-.622-12.381 0-18.572-.445.233-8.445.465-16.891.697-25.248a557.675 557.675 0 0 0 5.273-15.647c-.288-68.188.464-136.998-.376-204.83.188-29.427-7.097-14.847-4.997-45.341 3.748-9.868 7.573-20.714 11.552-21.248.089 7.646.265 22.937.343 30.494zM13645.281 567.042c2.432 31.65 4.035 66.677 5.936 100.37-.077 4.624-.22 13.78-.298 18.315-2.653-36.895-4.179-77.968-5.638-118.685zM13640.45 820.325c1.062-25.693 3.792-43.473 6.655-56.009-2.045 20.359-4.974 37.25-5.704 64.188-1.503 49.874.1 100.549 2.134 147.667l-.376.8c-3.15-47.652-4.72-103.838-2.709-156.646z" fill="#3e3e29" fill-rule="nonzero"/><path d="M13614.782 39.05c1.857-15.113 4.754-12.98 7.141-17.691l-.044 7.023-.088 11.913c-1.382.534-2.764.978-4.135 1.156l-2.874-2.4zM13605.099 49.363c1.824-4.8 3.659-9.601 5.516-13.69 1.813 23.203.011 47.74-.011 71.921.365 25.604 4.797 21.515 5.593 44.007 5.848 106.683 11.884 212.566 17.908 318.537.951 11.647-.154 24.27-.619 35.472-4.355 113.795-6.422 233.28-11.198 346.009-.276-2.668-.829-7.913-1.105-10.491 3.836-118.685 7.052-238.614 10.623-357.832a220049.36 220049.36 0 0 1-26.707-433.933zM13615.191 51.408c2.72-4 5.472-7.023 8.247-7.201.066.267.221.711.287.889l1.559 15.825-.343 7.734c-3.36 3.645-6.754 6.312-10.137 7.735-.585-4.712-1.735-14.225-2.31-18.937l2.697-6.045zM13680.544 143.867c2.576-14.758 4.698-43.74 8.324-38.05-1.846 12.179-3.67 24.714-5.704 34.76-.652.8-1.967 2.49-2.62 3.29z" fill="#ece2a9" fill-rule="nonzero"/><path d="M13622.896 114.795c1.703-3.111 3.405-6.223 5.118-9.245 5.992 90.413 11.994 180.738 17.92 271.419l1.16-5.246 2.2-7.023c-1.15 16.536-2.62 31.205-3.958 46.674 12.846-65.966 24.231-148.556 36.513-221.012 2.94 23.026 6.024 44.807 8.987 67.655-.509 3.112-1.537 9.335-2.045 12.447-.066-4.979-.221-14.936-.299-19.915-4.698 28.271-9.794 57.876-12.07 103.216l-1.106 8.18c-4.533 34.227-9.363 65.698-13.896 99.925-2.564 18.136-5.118 36.45-7.65 54.942-.828 50.23-1.724 100.37-2.553 150.6-1.901-33.693-3.504-68.72-5.936-100.37 1.46 40.717 2.985 81.79 5.638 118.685-.674 38.05-1.37 76.1-2.123 114.061-4.554 8.535-6.124 50.23-5.184 83.213.265 13.513 2.222 15.291 3.416 21.426-.42 25.603-.84 51.207-1.338 76.811l-.442 18.848c-8.556 11.824-17.886-1.156-24.706-46.23 5.35-153.534 12.049-303.868 16.869-458.647.563-18.314.707-37.25.806-56.009-.497 1.6-1.514 4.801-2.011 6.401-3.903-56.186-5.65-121.085-4.411-185.095l-1.857-3.2c.199 27.915.31 56.008.31 84.013-1.504-23.382-2.886-47.385-4.18-71.567 1.77-30.138-.441-61.342-3.47-79.567-2.697-15.292-3.792-40.718-5.019-64.01a249.019 249.019 0 0 1 4.997-7.468c2.487 44.896 6.4 86.769 6.798 137.354.475-5.69.95-11.38 1.415-17.158-2.067-43.562-4.842-84.546-7.893-124.108m17.554 705.53c-2.011 52.808-.442 108.994 2.709 156.646l.376-.8c-2.034-47.118-3.637-97.793-2.134-147.667.73-26.938 3.66-43.829 5.704-64.188-2.863 12.536-5.593 30.316-6.655 56.009zM13689.355 137.288c2.597-8.802 4.499 22.225 7.108 10.312 1.326 1.512 2.398 7.557 3.437 13.87-.652 7.911.553 14.757.951 21.336-1.348 12.18-2.907 22.848-4.278 34.85-3.394-9.602-6.124-28.983-8.976-45.785-1.79-11.735.376-28.538 1.758-34.583z" fill="#ece2a9" fill-rule="nonzero"/><path d="M13649.714 354.476c9.794-67.832 19.688-134.687 29.57-201.808-1.625 32.716-5.494 50.94-8.633 73.078-6.854 45.607-13.376 94.147-20.23 139.754l-.707-11.024zM13622.918 209.565c1.504-1.244 2.753 19.915 2.156 30.405-1.68 1.69-2.708-19.47-2.156-30.405zM13647.171 899.626c-5.836-8.446-3.305-88.458 1.68-97.615-.585 32.538-1.193 64.988-1.68 97.615zM13620.785 862.998c2.354 32.45-1.813 63.565-1.106 95.837 4.754 41.517 12.193 52.008 18.715 65.165h-5.549c-5.615-7.556-10.877-26.67-15.288-55.386 1.094-35.205 2.145-70.41 3.228-105.616z" fill="#ece2a9" fill-rule="nonzero"/><path d="M13621.923 21.359c2.034-16.536 2.112 21.781-.044 7.023l.044-7.023z" fill="#3a3828" fill-opacity=".41" fill-rule="nonzero"/><path d="M13676.421 353.765c2.277-45.34 7.373-74.945 12.071-103.216.078 4.979.233 14.936.299 19.915-.796 5.067-1.658 9.601-2.498 14.135l-.42 1.956-.31 2.578c-.166 1.422-.486 4.178-.652 5.512a1163.783 1163.783 0 0 1-1.37 12.446c-2.123 17.87-4.633 32.272-7.12 46.674z" fill="#706d4e" fill-opacity=".95" fill-rule="nonzero"/><path d="M13685.873 286.555l.42-1.956c-.188 1.156-.553 3.378-.73 4.534l.31-2.578z" fill="#d6ce99" fill-rule="nonzero"/><path d="M13684.91 294.645c.167-1.334.487-4.09.653-5.512-.166 1.422-.486 4.178-.652 5.512z" fill="#d1c995" fill-opacity=".94" fill-rule="nonzero"/><path d="M13684.203 301.224z" fill="#c3bb8b" fill-opacity=".87" fill-rule="nonzero"/><path d="M13683.54 307.091z" fill="#b5ac81" fill-opacity=".81" fill-rule="nonzero"/></g></g></svg>