<svg viewBox="0 0 2913 1024" xmlns="http://www.w3.org/2000/svg" fill-rule="evenodd" clip-rule="evenodd" stroke-linejoin="round" stroke-miterlimit="1.414"><g transform="matrix(2.4392 0 0 1 -5805.29 0)"><path fill="none" d="M2380 0h1194v1024H2380z"/><clipPath id="a"><path d="M2380 0h1194v1024H2380z"/></clipPath><g fill="#c00" clip-path="url(#a)"><path d="M3419.284 890.85V1024h98.62c20.207 0 54.89-36.046 56.097-136.828v-51.494c0-86.069-28.953-136.828-56.096-136.828h-49.16v-61.793h97.414V503.172h-93.493c-24.127 0-56.398 48.552-56.398 139.035v46.345c0 90.482 31.97 136.827 56.398 136.827 67.858.736-16.286 0 46.445 0v64.736M2890.897 858.483s52.778-11.035 52.778-177.288c0-166.253-63.937-181.7-63.937-181.7H2764.53V1024h57.906V897.47L2872.5 1024h85.652l-67.255-165.517zm-22.318-107.403h-46.143V631.172h46.445s12.968 11.77 12.968 59.586c0 47.817-13.27 60.322-13.27 60.322zM3086.63 503.172h-58.81c-41.922 0-56.097 92.69-56.097 136.828v384h58.81v-91.954h55.192V1024h57V640c0-111.816-41.62-136.828-56.095-136.828zm-.905 280.276h-55.493V656.184s0-28.69 18.397-28.69h20.207c16.286 0 16.587 28.69 16.587 28.69v127.264h.302z" fill-rule="nonzero"/><path d="M3169.567 503.172h61.223V1024h-61.223z"/><path d="M3316.743 889.38V503.171h-60.92V1024h143.255V889.38h-82.335zM2401.113 1024h238.257s-45.54-506.85 105.255-712.092c32.874-38.989 137.526-184.644 308.83 124.322 5.428-11.035 10.555-19.862 10.555-19.862S2907.183 34.575 2732.562 77.24c-87.763 19.127-195.733 214.07-259.067 471.54-63.334 257.472-72.382 475.219-72.382 475.219z" fill-rule="nonzero"/><path d="M2401.113 1024h238.257s-45.54-506.85 105.255-712.092c32.874-38.989 137.526-184.644 308.83 124.322 5.428-11.035 10.555-19.862 10.555-19.862S2907.183 34.575 2732.562 77.24c-87.763 19.127-195.733 214.07-259.067 471.54-63.334 257.472-72.382 475.219-72.382 475.219z" fill-rule="nonzero"/><path d="M2401.113 1024h238.257s-45.54-506.85 105.255-712.092c32.874-38.989 137.526-184.644 308.83 124.322 5.428-11.035 10.555-19.862 10.555-19.862S2907.183 34.575 2732.562 77.24c-88.065 19.127-196.034 214.07-259.369 471.54-63.334 257.472-72.08 475.219-72.08 475.219zM2897.532 118.437l1.206-49.288c-2.714-3.678-10.254-12.505-29.254-25.747l-1.206 48.552c9.952 8.092 19.603 16.92 29.254 26.483z" fill-rule="nonzero"/><path d="M2868.88 274.39l-1.206 46.346c9.953.735 19.905 3.678 29.858 8.827l1.206-45.609c-10.254-5.15-20.206-8.092-29.857-9.563zM2757.292 44.874h3.016L2754.276 0c-9.35 0-19 1.471-28.952 4.414l5.73 43.402c8.746-2.207 17.492-2.942 26.238-2.942zM2771.769 315.586l6.936 50.759c8.746-10.3 17.492-19.127 26.239-25.747l-6.635-48.552c-10.255 7.356-19 15.448-26.54 23.54zM2634.846 122.115l-13.571-50.759c-7.54 9.564-15.382 19.862-23.524 31.632l13.873 51.495c7.841-11.77 15.38-22.805 23.222-32.368zM2696.672 453.15l14.477 52.965c5.127-18.391 11.159-35.31 17.794-52.23l-13.572-50.023c-6.937 15.448-13.27 32.368-18.699 49.287zM2652.942 690.023l24.429 47.08c1.206-28.69 3.317-57.379 6.333-86.069l-21.715-41.93c-3.92 27.218-6.635 54.436-9.047 80.919zM2520.845 340.598l-21.413-45.61c-7.842 18.391-15.381 36.782-22.318 55.173l23.223 48.552c6.333-19.863 13.27-39.725 20.508-58.115zM2429.764 669.425l-34.683-30.896c-5.73 31.632-12.063 68.413-15.08 88.275l34.684 30.897c3.92-25.012 10.254-61.057 15.08-88.276zM2648.418 876.873c.603 38.989 2.11 70.621 3.619 92.69l36.19 31.632c-2.713-28.69-5.428-61.057-7.237-95.632l-32.572-28.69z" fill-rule="nonzero"/></g></g></svg>