<svg viewBox="0 0 1179 1024" xmlns="http://www.w3.org/2000/svg" fill-rule="evenodd" clip-rule="evenodd" stroke-linejoin="round" stroke-miterlimit="1.414"><g transform="matrix(1.02542 0 0 1.00439 -12417.6 0)"><path fill="none" d="M12109.7 0h1149.67v1019.53H12109.7z"/><clipPath id="a"><path d="M12109.7 0h1149.67v1019.53H12109.7z"/></clipPath><g clip-path="url(#a)"><path d="M12791.265 0h20.752c11.772.49 23.485 1.91 35.173 3.476 23.533 4.149 47.186 11.468 66.427 26.412 16.771 12.778 28.58 32.19 31.804 53.35 2.098 17.221.648 34.883-4.52 51.43-7.12 24.136-19.288 46.35-33.194 67.034-26.195 38.174-58.827 71.293-93.916 100.937-36.192 30.5-75.322 57.267-116.142 80.852-43.48 24.98-88.904 46.497-135.91 63.607-51.86 18.738-105.76 32.605-160.738 36.877-18.366.746-36.768.93-55.121-.098-30.954-2.925-63.07-10.477-87.778-30.757-19.493-15.715-30.966-40.99-30.402-66.312.06-33.132 14.601-63.926 30.93-91.77 33.818-52.69 79.41-96.371 128.465-134.093 38.614-29.484 79.865-55.296 122.795-77.682 46.155-23.976 94.275-44.208 144.014-59.042 44.656-13.45 90.787-22.336 137.361-24.221z" fill="#ec1622" fill-rule="nonzero"/><path d="M12982.285 110.422l.396-.122c6.341 11.456 14.23 21.932 21.147 33.021 50.71 77.205 101.336 154.471 152.034 231.688 10.25 16.07 21.267 31.638 31.11 47.978-7.325-1.2-14.398-3.476-21.615-5.165-106.335-26.608-212.695-53.192-319.03-79.836-4.124-1.151-8.296-2.118-12.54-2.595-8.979 128.5-17.874 257.023-26.865 385.522-.084 8.47-1.81 16.866-1.247 25.36-.156-.147-.48-.44-.635-.588-33.927-25.139-68.333-49.63-102.428-74.524-74.518-54.048-149.049-108.084-223.532-162.17l.912-.685c117.244-57.683 234.669-114.987 351.973-172.56a8.363 8.363 0 0 0 3.093-2.766c49.104-74.158 98.04-148.45 147.227-222.558z" fill="#ec1622" fill-rule="nonzero"/><path d="M13209.426 389.66c4.591-7.552 8.175-15.752 13.63-22.753-58.418 152.733-116.849 305.466-175.243 458.21-24.384 63.473-48.445 127.08-72.985 190.492-.491-5.716.852-11.285 1.69-16.878 20.021-134.117 39.957-268.259 60.026-402.364.611-3.916.79-7.93 1.966-11.725 1.798-2.962 4.855-4.834 7.337-7.16 33.926-29.619 66.114-61.343 95.785-95.404 24.924-28.91 48.169-59.47 67.794-92.419z" fill="#ec1622" fill-rule="nonzero"/><path d="M12912.25 1.616c11.713.33 23.449 2.203 34.55 6.12 44.776 15.812 90.739 27.758 136.078 41.735 22.322 7.148 44.656 14.454 66.127 24.013-55.397 12.484-110.915 24.442-166.324 36.816l-.396.122c-23.305-36.29-46.838-72.444-70.035-108.806zM12187.12 406.513c6.437-18.726 16.82-35.677 27.597-52.054 1.846 45.445 3.752 90.913 5.79 136.357 81.795 5.875 163.59 11.358 245.398 17.074 4.664.465 9.387 1.004 14.087.416l-.912.686c-2.757 3.084-4.903 6.658-7.193 10.097-70.622 105.367-141.22 210.747-211.843 316.126-2.83 4.284-5.563 8.666-8.871 12.594-10.286-118.708-20.416-237.44-30.75-356.148-2.062 1.395-4.04 2.913-5.73 4.773-29.48 30.12-59.522 59.666-89.097 89.701 16.16-61.33 38.818-120.58 61.524-179.622zM12671.73 804.8c45.64-16.669 90.5-35.823 133.31-59.115.155.147.48.441.635.588 6.462 10.012 12.54 20.28 18.833 30.402 42.894 70.008 85.884 139.955 128.766 209.964 6.893 10.623 12.78 21.945 20.332 32.115l.036.771h-1.703c-3.44-2.79-7.852-3.635-11.796-5.397-136.845-55.248-273.63-110.618-410.464-165.89a90.645 90.645 0 0 1-10.765-4.835c45.075-9.705 89.336-23.132 132.817-38.602z" fill="#f36662" fill-rule="nonzero"/><path d="M12982.68 110.3c55.41-12.374 110.928-24.332 166.325-36.816 19.625 8.653 38.182 19.852 55.002 33.34 15.824 12.826 30.246 28.015 39.837 46.337 4.855 9.168 7.468 19.314 9.938 29.362 3.153 13.733 5.19 27.783 5.586 41.907v13.635c-1.27 28.162-7.36 56.043-16.915 82.455-5.503 15.887-13.295 30.77-19.397 46.387-5.455 7-9.039 15.2-13.63 22.752-19.625 32.948-42.87 63.51-67.794 92.419-29.67 34.061-61.859 65.785-95.785 95.404-2.482 2.326-5.539 4.198-7.337 7.16-1.175 3.794-1.355 7.809-1.966 11.725-20.069 134.105-40.005 268.247-60.025 402.364-.84 5.593-2.182 11.162-1.69 16.878a65.467 65.467 0 0 0-1.223 3.145c-7.553-10.17-13.44-21.492-20.332-32.115-42.882-70.009-85.872-139.956-128.766-209.964-6.293-10.122-12.371-20.39-18.833-30.402-.563-8.494 1.163-16.89 1.247-25.36 8.99-128.499 17.886-257.023 26.865-385.522 4.244.477 8.416 1.444 12.54 2.595 106.335 26.644 212.695 53.228 319.03 79.836 7.217 1.689 14.29 3.965 21.615 5.165-9.843-16.34-20.86-31.908-31.11-47.978-50.698-77.217-101.324-154.483-152.034-231.688-6.917-11.089-14.806-21.565-21.147-33.021zM12214.693 496.434c1.69-1.86 3.668-3.378 5.73-4.773 10.334 118.708 20.464 237.44 30.75 356.148 3.308-3.928 6.042-8.31 8.871-12.594 70.623-105.38 141.221-210.759 211.843-316.126 2.29-3.44 4.436-7.013 7.193-10.097 74.483 54.085 149.014 108.12 223.532 162.169 34.095 24.895 68.501 49.385 102.428 74.524-42.81 23.292-87.67 42.446-133.31 59.116-43.48 15.47-87.74 28.897-132.816 38.602a90.645 90.645 0 0 0 10.765 4.835c136.833 55.272 273.619 110.642 410.464 165.89 3.944 1.762 8.356 2.607 11.796 5.397h-2.937l.24-.012c-3.5-2.582-7.936-2.717-11.952-3.843-222.238-52.58-444.415-105.343-666.652-157.922-22.166-4.419-44.32-9.657-65.264-18.506-35.653-14.54-68.417-38.174-90.439-70.645-8.332-12.557-16.22-25.763-20.38-40.438-3.02-11.285-4.615-22.973-4.855-34.661V679.03c1.966-31.443 7.924-62.506 15.896-92.896 29.575-30.035 59.618-59.58 89.097-89.7z" fill="#960e16" fill-rule="nonzero"/></g></g></svg>