<svg viewBox="0 0 1361 1024" xmlns="http://www.w3.org/2000/svg" fill-rule="evenodd" clip-rule="evenodd" stroke-linejoin="round" stroke-miterlimit="1.414"><g transform="matrix(2.29387 0 0 1.00062 -24347.7 -4.48)"><path fill="none" d="M10614.2 4.474h592.927v1023.37H10614.2z"/><clipPath id="a"><path d="M10614.2 4.474h592.927v1023.37H10614.2z"/></clipPath><g clip-path="url(#a)"><path d="M11124.685 589.553c-20.73.265-38.682 11.682-53.738 28.675-5.56-25.224-11.119-47.261-12.045-63.723-1.043-19.117-2.317-30.799-1.043-53.633 1.274-22.834 7.065-55.226 7.065-57.881-.116-2.39-1.274-14.072-13.203-14.338-11.929-.265-22.236 5.31-23.395 12.48-1.158 7.168-3.474 23.63-4.98 40.622-2.084 24.958-23.858 113.373-36.25 159.838-4.054-18.055-7.528-33.986-8.223-46.73-1.042-19.117-2.316-30.8-1.042-53.633 1.274-22.834 7.064-55.227 7.064-57.882-.115-2.39-1.274-14.072-13.203-14.337-11.929-.266-22.236 5.31-23.394 12.479-1.159 7.169-2.433 24.161-4.98 40.623-2.433 16.462-31.387 164.086-38.915 202.585-3.822 19.648-7.18 35.313-9.612 45.933-2.433 10.62-.116.797-.348 1.859-2.085 9.027-3.243 14.072-3.243 14.072v.265c-1.621 6.638-3.358 13.01-4.17 13.01-.578 0-1.736-17.789.232-42.216 4.286-51.243 14.71-131.162 14.593-134.083 0-1.327 1.97-15.4-6.717-22.568-8.455-7.17-11.466 4.779-12.16 4.779-.696 0-1.275 4.248-1.275 4.248s9.381-90.008-17.951-90.008c-17.14 0-40.767 42.747-52.465 81.777-7.412 9.293-23.163 28.94-39.84 49.916-6.37 7.966-12.972 16.462-19.226 24.162l-1.274-3.186c-33.123-80.981-94.39-138.332-91.842-247.191.927-39.561 6.949-143.907 117.669-270.29 90.684-103.55 163.3-75.14 175.925-11.948 17.951 90.273-38.799 258.076-133.073 282.238-35.903 9.293-54.781-22.569-59.53-34.517-4.98-12.479-5.674-13.01-7.528-10.62-3.01 3.717-1.158 14.869 0 21.506 2.78 16.728 14.362 46.465 34.05 61.333 17.257 13.01 59.414 20.18 110.373-24.958 57.097-50.712 101.686-191.433 88.6-309.054-13.32-119.746-99.95-159.041-181.832-92.398-48.758 39.826-101.57 101.956-139.558 183.468-45.168 96.646-52.349 181.078-49.338 216.126 10.54 125.056 85.704 206.567 115.816 266.838-1.505 1.859-2.895 3.718-4.17 5.31-15.055 16.993-72.384 85.76-86.745 158.51-16.215 82.31 2.548 141.518 15.056 149.483 38.682 24.693 78.291-19.647 99.717-92.663 21.31-73.015 18.763-167.803 8.918-211.081l-.347-1.593 11.813-15.93c7.644-10.356 15.172-19.914 21.773-28.145-3.706 23.1-6.37 50.447-7.76 90.274-1.62 46.73 6.718 107.266 17.72 131.162 4.865 10.355 10.656 10.62 14.246 10.62 12.74 0 18.53-24.161 24.9-53.102 7.876-35.313 14.825-76.201 14.825-76.201s-8.686 110.718 15.056 110.718c8.686 0 17.372-25.755 21.31-39.03v.265s.232-.796.695-2.655c.926-3.186 1.39-5.045 1.39-5.045v-.53c3.474-13.807 11.234-45.403 22.815-97.709 14.94-67.44 29.302-151.872 29.302-151.872s1.39 20.71 5.675 54.695c2.548 20.18 8.107 42.216 12.392 63.723-3.474 11.151-5.559 17.524-5.559 17.524l.116.265c-2.78 8.496-5.907 17.524-9.15 26.551-11.813 32.393-25.942 69.299-27.795 79.919-2.2 12.479-1.738 21.772 2.548 29.206 3.127 5.31 8.686 6.373 14.592 5.31 10.655-1.593 18.068-7.7 21.774-11.417 5.79-4.779 12.392-11.948 18.762-22.568 11.582-19.648 18.646-47.526 17.951-84.698-.347-20.444-3.242-40.623-6.833-59.74 1.043-3.452 2.085-6.903 3.127-10.62 18.3-61.333 32.429-128.773 32.429-128.773s1.39 20.71 5.675 54.695c2.2 17.258 6.601 36.11 10.539 54.695-17.14 32.127-27.912 69.299-31.618 93.726-6.833 45.137-1.505 65.58 8.57 70.36 4.517 2.124 11.003-2.655 15.867-7.434 6.023-4.514 13.32-12.214 20.037-23.63 11.581-19.648 22.7-46.996 22.12-83.902-.347-16.993-2.316-33.72-4.98-49.65 14.593-13.807 33.471-21.773 57.445-15.135 51.538 13.807 61.73 87.619 59.761 118.418-1.969 30.8-12.74 47.792-16.33 53.102-3.59 5.045-4.748 6.904-4.4 10.62.462 5.576 2.084 5.31 5.21 4.249 4.286-1.593 27.102-25.224 28.028-82.043 1.39-73.016-28.838-152.669-82.46-151.872zm-397.48 307.196c-17.025 42.747-41 58.943-51.19 45.137-11.003-14.603-6.718-77.53 14.244-122.932 12.74-27.613 29.302-53.102 40.189-68.767 2.432-3.452 6.138-8.496 10.539-14.603.695-1.062 1.158-1.593 1.158-1.593.81-1.062 1.737-2.39 2.664-3.717 7.76 64.784.347 121.604-17.604 166.475zm124.502-194.089c-5.907 33.19-18.415 118.418-25.943 113.64-6.485-3.984-10.423-68.503-1.274-132.225 4.633-32.127 14.477-70.36 20.268-85.23 9.381-23.895 19.573-31.86 22.12-22.037 3.012 12.745-11.465 105.143-15.171 125.852zm102.729 112.577c-2.548 2.92-4.864 5.045-5.907 3.452-.81-1.062 1.043-5.045 1.043-5.045s12.855-31.596 17.951-46.199c2.895-8.496 6.37-18.32 10.076-29.472v3.186c0 38.234-15.983 63.723-23.163 74.078zm79.218-41.42c-1.853-3.186-1.622-13.01 4.633-43.809 2.432-12.213 7.99-32.658 17.604-52.04 1.158 7.965 1.853 15.665 1.737 22.834-.116 47.792-14.94 65.581-23.974 73.015z" fill="#cf649a" fill-rule="nonzero"/></g></g></svg>