<svg viewBox="0 0 2455 1024" xmlns="http://www.w3.org/2000/svg" fill-rule="evenodd" clip-rule="evenodd" stroke-linejoin="round" stroke-miterlimit="1.414"><g transform="matrix(1.84171 0 0 1 -10273.06 0)"><path fill="none" d="M5578 0h1333v1024H5578z"/><clipPath id="a"><path d="M5578 0h1333v1024H5578z"/></clipPath><g fill="#6ac045" fill-rule="nonzero" clip-path="url(#a)"><path d="M5662.005 105.648c24.417-44.13 51.634-86.941 84.972-105.649-51.765 59.84-94.413 148.1-115.12 254.828-30.147 144.863-20.315 315.028 25.46 445.14 37.57 109.606 99.102 190.191 167.6 219.931 71.299 32.858 149.304 6.716 210.836-66.795 60.685-71.591 104.506-188.512 119.157-318.625-2.28 149.54-50.463 285.288-112.32 377.266 204.194-109.966 422.583-92.698 629.772-20.387 39.328 11.393 77.159 34.417 116.096 48.927-12.046.36-24.092 0-35.942-4.437-170.791-55.282-345.685-81.425-518.494-44.49 58.406 8.035 116.942-4.676 175.414 2.998 122.998 13.072 246.257 48.328 363.265 120.759-60.946-19.667-121.436-45.21-183.033-58.4-214.482-46.77-432.61-25.663-644.943 43.89-75.075 32.378-157.443 16.069-223.988-58.161-81.587-86.821-136.347-251.71-142.012-424.753-5.99-151.098 25.46-304.714 83.28-412.042zM6730.442 130.711c55.477-50.606 124.952-51.445 180.559-.84-9.572 42.212-18.167 85.143-26.827 128.074-32.882-28.9-73.122-48.087-107.827-18.347-16.864 14.03-29.561 54.923-18.492 86.701 15.757 41.252 42.454 59.84 64.983 85.382 27.087 29.5 52.741 72.072 60.88 130.113 9.962 78.427-4.688 167.167-38.872 218.612-34.77 53.004-81.717 69.433-125.863 65.955-35.226-.36-70.257-16.069-100.99-47.967 9.246-43.291 19.078-86.102 28.584-129.273 32.752 35.376 71.754 53.844 109.585 43.05 21.292-6.834 42.063-36.095 42.844-78.666-1.562-44.97-24.417-70.153-43.495-89.94-33.729-32.737-70.127-72.91-84.191-142.103-18.232-95.815 10.744-206.62 59.122-250.75z"/><path d="M5759.284 118.84c40.695-29.021 90.376 20.865 97.669 100.611 10.027 77.828-25.003 161.771-68.63 162.25-41.606 6.476-80.088-64.036-76.767-140.544.195-53.844 20.575-103.85 47.728-122.318zM6090.187 103.97c29.887.599 59.84.359 89.726.359 13.153 90.419 27.152 180.358 40.044 270.897 33.599-88.86 64.592-181.078 97.279-271.137 133.351-.36 266.702 1.44 399.989-.6-25.72 36.576-52.612 76.15-63.55 134.91-28.195 0-56.388-.24-84.517-.12-19.6 184.075-40.37 367.791-58.08 552.466-28.13.6-56.128-5.996-84.127-8.634 18.753-181.557 38.873-362.635 58.862-543.713-40.695-.12-81.456-.24-122.152 0-34.965 86.582-69.215 174.243-104.31 260.584-5.275 13.072-10.484 27.102-11.916 43.531-9.05 83.823-18.492 167.527-28.39 251.11-27.737 6.716-55.345 15.11-82.953 23.744 8.4-88.02 18.687-175.441 27.347-263.342 3.582-23.624-.781-47.248-4.818-69.433-23.31-126.634-44.863-254.228-68.434-380.623zM5860.73 410.482c17.32-16.908 40.37 11.992 40.304 46.889 1.433 39.933-27.347 70.632-44.667 43.77-18.036-21.585-14.585-74.47 4.362-90.659zM5731.74 464.086c39.98-27.581 88.229 23.864 95.521 101.092 10.484 79.626-26.566 166.807-71.494 162.85-40.304 4.197-75.465-64.517-74.293-137.427.65-55.763 21.096-109.726 50.267-126.515zM5915.034 560.98c41.802-38.853 96.562 15.95 103.073 100.373 8.986 80.226-29.17 161.41-73.252 159.372-36.202-.6-69.345-54.803-72.535-121.718-3.647-56.601 14.324-115.242 42.714-138.026z"/></g></g></svg>