<?xml version="1.0" standalone="no"?>
<!DOCTYPE svg PUBLIC "-//W3C//DTD SVG 20010904//EN"
 "http://www.w3.org/TR/2001/REC-SVG-20010904/DTD/svg10.dtd">
<svg version="1.0" xmlns="http://www.w3.org/2000/svg"
 width="700.000000pt" height="700.000000pt" viewBox="0 0 700.000000 700.000000"
 preserveAspectRatio="xMidYMid meet">
<metadata>
Created by potrace 1.11, written by Peter Selinger 2001-2013
</metadata>
<g transform="translate(0.000000,700.000000) scale(0.100000,-0.100000)"
fill="#000000" stroke="none">
<path d="M3375 6990 c-106 -22 -210 -77 -296 -157 l-51 -47 -46 26 c-198 111
-468 120 -664 22 -107 -54 -208 -137 -273 -226 l-20 -28 -70 27 c-61 23 -85
27 -190 27 -101 1 -131 -3 -187 -22 -228 -79 -387 -295 -391 -532 l-2 -79 -61
-26 c-166 -70 -307 -208 -377 -366 -98 -222 -76 -498 55 -687 l33 -47 296
-2393 c324 -2619 295 -2426 370 -2464 32 -17 148 -18 1999 -18 1851 0 1967 1
1999 18 75 38 46 -154 369 2459 l295 2388 37 60 c79 124 114 242 113 380 0
302 -165 554 -437 670 l-61 26 -2 79 c-3 154 -57 276 -172 391 -88 87 -163
129 -278 155 -102 22 -223 15 -318 -20 l-70 -26 -20 28 c-65 89 -166 172 -273
226 -206 104 -491 88 -690 -38 l-43 -27 -72 68 c-138 131 -326 188 -502 153z
m237 -290 c66 -31 122 -90 159 -168 39 -84 53 -100 101 -113 58 -15 95 2 172
77 80 79 164 121 267 136 167 23 336 -52 430 -189 l30 -43 -30 -63 c-50 -107
-65 -205 -46 -317 17 -102 117 -267 188 -311 70 -42 156 -16 188 57 26 57 14
103 -42 174 -53 67 -69 107 -69 172 0 144 124 258 280 258 81 0 142 -24 204
-81 88 -80 121 -186 92 -298 -20 -78 -20 -124 -2 -160 21 -39 53 -58 127 -71
200 -38 348 -187 381 -385 14 -84 -2 -182 -44 -265 l-30 -60 -2463 0 -2464 0
-21 30 c-55 77 -79 210 -56 316 27 132 89 224 199 295 92 60 106 60 165 -3 92
-97 208 -148 336 -148 83 0 138 28 165 84 26 52 26 60 1 114 -25 54 -79 81
-160 79 -67 -1 -128 29 -164 82 -36 52 -46 84 -48 154 -3 122 55 222 163 282
48 27 63 30 139 30 92 0 123 -12 235 -92 42 -30 56 -34 89 -30 58 8 86 34 136
128 79 148 194 235 343 259 72 11 125 7 201 -17 66 -21 109 -46 184 -109 72
-61 112 -73 163 -50 50 22 62 35 99 104 61 115 166 176 290 169 39 -3 84 -13
112 -27z m-859 -2042 c4 -68 14 -387 24 -710 l16 -586 -76 -82 c-41 -45 -96
-113 -122 -151 -193 -288 -236 -650 -116 -978 59 -163 166 -320 293 -434 l74
-66 17 -623 c10 -343 20 -653 23 -691 l6 -67 -268 2 -268 3 -177 2200 c-98
1210 -179 2224 -181 2253 l-5 52 377 0 377 0 6 -122z m2251 90 c-2 -18 -83
-1023 -180 -2233 -96 -1210 -177 -2210 -180 -2222 l-4 -23 -266 0 -266 0 6 68
c3 37 13 347 23 690 l17 623 74 66 c127 114 234 271 293 434 144 396 55 816
-241 1132 l-73 79 16 586 c10 323 20 642 24 710 l6 122 378 0 378 0 -5 -32z
m633 -118 c93 -56 93 -173 1 -230 -40 -24 -79 -25 -124 -4 -94 45 -98 179 -6
232 46 27 88 28 129 2z m-51 -512 c18 -13 40 -39 49 -59 16 -35 11 -80 -149
-1380 -92 -739 -169 -1359 -172 -1377 -8 -42 -40 -81 -80 -98 -44 -18 -68 -18
-111 3 -45 21 -73 67 -73 119 0 87 330 2709 345 2742 31 68 128 93 191 50z
m-1996 -779 c241 -29 441 -146 576 -335 92 -129 141 -267 150 -429 18 -294
-118 -570 -359 -728 -150 -98 -284 -139 -457 -139 -659 1 -1046 729 -679 1277
128 191 345 325 574 354 99 12 101 12 195 0z"/>
<path d="M2900 6189 c-109 -14 -198 -58 -278 -137 -99 -98 -145 -207 -146
-347 -1 -214 140 -403 348 -466 78 -24 168 -25 207 -2 41 24 73 94 65 138 -10
54 -65 102 -123 110 -147 19 -225 97 -226 222 0 70 35 138 91 178 35 24 55 30
111 33 86 5 131 -16 196 -92 75 -88 145 -97 223 -31 127 109 296 108 405 -2
49 -48 74 -104 86 -185 5 -37 16 -77 25 -89 56 -80 174 -78 225 4 39 64 20
205 -46 330 -94 178 -293 297 -498 297 -62 0 -187 -31 -243 -59 -35 -18 -42
-19 -52 -6 -7 8 -48 33 -91 54 -70 35 -98 43 -199 55 -14 1 -50 -1 -80 -5z"/>
</g>
</svg>
